<svg xmlns="http://www.w3.org/2000/svg" xmlns:xlink="http://www.w3.org/1999/xlink" width="60" height="60" viewBox="0 0 60 60">
  <defs>
    <linearGradient id="linear-gradient" x1="0.5" x2="0.5" y2="1" gradientUnits="objectBoundingBox">
      <stop offset="0" stop-color="#af1519"/>
      <stop offset="1" stop-color="#e32d2a"/>
    </linearGradient>
  </defs>
  <g id="Group_131" data-name="Group 131" transform="translate(-728 -1816)">
    <rect id="Rectangle_36" data-name="Rectangle 36" width="60" height="60" rx="10" transform="translate(728 1816)" fill="#f5f5f5"/>
    <path id="android" d="M3.492,12.5a1.5,1.5,0,0,0-1.5,1.5v6a1.5,1.5,0,1,0,3,0V14a1.5,1.5,0,0,0-1.5-1.5Zm27,0a1.5,1.5,0,0,0-1.5,1.5v6a1.5,1.5,0,1,0,3,0V14a1.5,1.5,0,0,0-1.5-1.5Zm-6.2-8.25a1.5,1.5,0,1,0-2.6-1.5l-.921,1.594a8.892,8.892,0,0,0-7.56,0L12.29,2.75a1.5,1.5,0,1,0-2.6,1.5l1.039,1.8A8.968,8.968,0,0,0,7.992,12.5v12a1.5,1.5,0,0,0,1.5,1.5h3v4.5a1.5,1.5,0,0,0,3,0V26h3v4.5a1.5,1.5,0,0,0,3,0V26h3a1.5,1.5,0,0,0,1.5-1.5v-12a8.968,8.968,0,0,0-2.74-6.453ZM22.992,23h-12V15.5h12Zm-12-10.5a6,6,0,1,1,12,0Z" transform="translate(741.008 1829)" fill="url(#linear-gradient)"/>
  </g>
</svg>
