<svg xmlns="http://www.w3.org/2000/svg" xmlns:xlink="http://www.w3.org/1999/xlink" width="60" height="60" viewBox="0 0 60 60">
  <defs>
    <linearGradient id="linear-gradient" x1="0.5" x2="0.5" y2="1" gradientUnits="objectBoundingBox">
      <stop offset="0" stop-color="#af1519"/>
      <stop offset="1" stop-color="#e32d2a"/>
    </linearGradient>
  </defs>
  <g id="Group_27" data-name="Group 27" transform="translate(-798 -2025)">
    <rect id="Rectangle_9" data-name="Rectangle 9" width="60" height="60" rx="10" transform="translate(798 2025)" fill="#f5f5f5"/>
    <path id="camera" d="M31.912,8.779H29.66L29.1,7.019a5.279,5.279,0,0,0-5-3.519H15.091a5.279,5.279,0,0,0-5,3.607l-.563,1.76H7.279A5.279,5.279,0,0,0,2,14.145V28.221A5.279,5.279,0,0,0,7.279,33.5H31.912a5.279,5.279,0,0,0,5.279-5.279V14.145a5.279,5.279,0,0,0-5.279-5.367Zm1.76,19.355a1.76,1.76,0,0,1-1.76,1.76H7.279a1.76,1.76,0,0,1-1.76-1.76V14.057a1.76,1.76,0,0,1,1.76-1.76H10.8a1.76,1.76,0,0,0,1.76-1.2l.95-2.886a1.76,1.76,0,0,1,1.672-1.2h9.009a1.76,1.76,0,0,1,1.672,1.2l.95,2.886a1.76,1.76,0,0,0,1.584,1.2h3.519a1.76,1.76,0,0,1,1.76,1.76ZM19.6,12.3a7.038,7.038,0,1,0,7.038,7.038A7.038,7.038,0,0,0,19.6,12.3Zm0,10.557a3.519,3.519,0,1,1,3.519-3.519A3.519,3.519,0,0,1,19.6,22.855Z" transform="translate(808.404 2036.5)" fill="url(#linear-gradient)"/>
  </g>
</svg>
