<svg xmlns="http://www.w3.org/2000/svg" xmlns:xlink="http://www.w3.org/1999/xlink" width="60" height="60" viewBox="0 0 60 60">
  <defs>
    <linearGradient id="linear-gradient" x1="0.5" x2="0.5" y2="1" gradientUnits="objectBoundingBox">
      <stop offset="0" stop-color="#af1519"/>
      <stop offset="1" stop-color="#e32d2a"/>
    </linearGradient>
  </defs>
  <g id="Group_26" data-name="Group 26" transform="translate(-1017 -1925)">
    <rect id="Rectangle_8" data-name="Rectangle 8" width="60" height="60" rx="10" transform="translate(1017 1925)" fill="#f5f5f5"/>
    <path id="clouds" d="M33.722,14.909a10.792,10.792,0,0,0-9.839-6.367,10.469,10.469,0,0,0-2.5.324,8.994,8.994,0,0,0-16.188,3.6A5.4,5.4,0,0,0,6.8,22.931h1.8a7.2,7.2,0,0,0,0,.9,6.3,6.3,0,0,0,6.3,6.3H31.384a7.788,7.788,0,0,0,2.338-15.217ZM6.8,19.334a1.8,1.8,0,1,1,0-3.6,1.8,1.8,0,0,0,1.8-1.8,5.376,5.376,0,0,1,9.389-3.6A10.792,10.792,0,0,0,13.2,17.769a6.278,6.278,0,0,0-2.7,1.565Zm24.589,7.195H14.89a2.7,2.7,0,1,1,0-5.4,1.8,1.8,0,0,0,1.8-1.8,7.195,7.195,0,0,1,13.994-2.32,1.8,1.8,0,0,0,1.4,1.205,4.191,4.191,0,0,1-.7,8.31Z" transform="translate(1026.601 1937.402)" fill="url(#linear-gradient)"/>
  </g>
</svg>
