<svg xmlns="http://www.w3.org/2000/svg" width="55.116" height="138.837" viewBox="0 0 55.116 138.837">
  <path id="Path_186" data-name="Path 186" d="M263.738,106.591a.392.392,0,0,1,.368-.075c.142.045.272.084.394.121l.06.018a8.652,8.652,0,0,1,.822.276,20.211,20.211,0,0,1,9.831,8.756,17.934,17.934,0,0,1,1.494,3.207,50.057,50.057,0,0,1-.891-9.12c-.005-.171-.005-.344-.005-.517a5.62,5.62,0,0,0-.1-1.321,7.178,7.178,0,0,0-.593-1.424c-.066-.131-.131-.263-.185-.378a.267.267,0,0,0-.1-.065,5.993,5.993,0,0,1-3.159-1.562,10.41,10.41,0,0,1-2.359-3.195,32.873,32.873,0,0,1-3.207-14.627,13.571,13.571,0,0,1,.124-1.536c.029-.24.058-.486.083-.741a.407.407,0,0,1,.218-.324.392.392,0,0,1,.384.02c.073.047.135.085.192.119.11.067.193.12.272.178a21.061,21.061,0,0,1,4.821,5.023,22.333,22.333,0,0,1,3.859,10.892q.052-.671.1-1.343l.012-.162c.136-1.755.277-3.569.392-5.353a10.592,10.592,0,0,1,.195-1.317,4.939,4.939,0,0,0,.068-2.4c-.054-.183-.1-.367-.145-.551a5.037,5.037,0,0,0-1.489-1.922l-.031-.029a10.336,10.336,0,0,1-2.782-4.7,26.72,26.72,0,0,1-.79-8.4v-.061a27.2,27.2,0,0,1,1.067-7.665c.087-.277.19-.55.3-.837.057-.149.114-.3.174-.465a.4.4,0,0,1,.3-.26l.067-.006a.389.389,0,0,1,.305.15l.652.818a20.792,20.792,0,0,1,4.565,13.689,27.373,27.373,0,0,1-.2,2.8,81.312,81.312,0,0,1,2.785-8.218.619.619,0,0,0,.038-.19l.007-.362c.011-.522.022-1.062,0-1.593a.83.83,0,0,0-.174-.4c-.164-.223-.345-.44-.534-.667a8.979,8.979,0,0,1-.914-1.234,10.51,10.51,0,0,1-1.247-5.418,33.829,33.829,0,0,1,1.243-8.731,22.8,22.8,0,0,1,2.5-6.3c.09-.143.19-.279.3-.422.048-.063.1-.131.15-.2a.389.389,0,0,1,.345-.164.4.4,0,0,1,.318.209,21.21,21.21,0,0,1,2.523,10.067,27.931,27.931,0,0,1-1.018,7.82,78.259,78.259,0,0,1,4.937-8.078l.041-.058c.041-.056.058-.083.055-.064.113-.831.191-1.5.245-2.075a.726.726,0,0,0-.1-.2c-.118-.208-.248-.412-.386-.627a7.2,7.2,0,0,1-.746-1.385,10.585,10.585,0,0,1-.379-5.257,23.807,23.807,0,0,1,5.848-12.308,13.909,13.909,0,0,1,1.1-1.1l.109-.1c.154-.144.313-.291.473-.447a.388.388,0,0,1,.389-.094.408.408,0,0,1,.268.3l.072.324c.049.215.087.384.115.554a28.033,28.033,0,0,1-.1,8.887,21.762,21.762,0,0,1-3.05,8.461,63.916,63.916,0,0,1,6.908-7.248.242.242,0,0,0,.027-.068,6.955,6.955,0,0,1,1.193-4.693,12.157,12.157,0,0,1,5.353-4.55c1.35-.6,2.748-1.137,4.117-1.66.656-.251,1.312-.5,1.987-.769s.969-.328,1.127-.177c.2.195.154.361.066.663l-.029.1a19.718,19.718,0,0,1-3.359,6.945c-2.63,3.309-5.706,4.99-9.4,5.139a.545.545,0,0,0-.274.078c-.52.4-.9.722-1.241,1.04q-1.6,1.511-3.155,3.211a9.182,9.182,0,0,1,5.518-1.315c1.155.06,2.3.234,3.41.4l.042.007q.492.074.979.146c.712.1,1.431.229,2.065.344.257.047.871.191,1.012.5a.357.357,0,0,1-.011.324,1.993,1.993,0,0,1-.161.255,13.518,13.518,0,0,1-6.385,4.927,10.164,10.164,0,0,1-8.249-.275,2.726,2.726,0,0,0-1.36-.324,3.506,3.506,0,0,0-.789.087.851.851,0,0,0-.387.164,73.983,73.983,0,0,0-4.375,6.667,9.647,9.647,0,0,1,4.715-2.447,28.826,28.826,0,0,1,5.417-.629l.6-.031c.558-.029,1.116-.066,1.69-.1l.963-.061a.388.388,0,0,1,.316.165.415.415,0,0,1,.052.385,3.592,3.592,0,0,1-.145.363,16.757,16.757,0,0,1-6.733,6.835,10.1,10.1,0,0,1-7.305,1.106,3.877,3.877,0,0,0-.918-.1,2.266,2.266,0,0,0-1.855.609,83.884,83.884,0,0,0-3.464,8.57,11.276,11.276,0,0,1,4.379-3.61c1.848-.9,3.771-1.72,5.664-2.528.813-.346,1.63-.694,2.443-1.05a.387.387,0,0,1,.376.034.409.409,0,0,1,.177.339c0,.262-2.7,7.98-6.62,11.021a10.321,10.321,0,0,1-6.053,2.577,2.594,2.594,0,0,0-2.093.8.766.766,0,0,1-.335.237c-.2.067-.253.192-.351.618a84.611,84.611,0,0,0-1.751,10.708q.164-.554.381-1.121a15.89,15.89,0,0,1,4.647-6.313c1.182-1.043,2.42-2.052,3.617-3.029l.057-.046c.545-.445,1.089-.888,1.632-1.337.112-.093.221-.188.348-.3l.339-.3a.394.394,0,0,1,.433-.053.41.41,0,0,1,.216.392c-.017.246-.03.479-.043.7l-.007.1c-.027.46-.052.894-.1,1.323a22.32,22.32,0,0,1-3.683,10.653,13.021,13.021,0,0,1-5.94,5.183,3.7,3.7,0,0,0-1.732,1.37,2.957,2.957,0,0,0-.59,2.041,86.944,86.944,0,0,0,.661,9.508,13.393,13.393,0,0,1,.583-2.688,20.869,20.869,0,0,1,2.936-5.71c1.173-1.663,2.394-3.333,3.575-4.948l.078-.108c.468-.64.936-1.28,1.392-1.907a.526.526,0,0,1,.28-.2.386.386,0,0,1,.329-.009.4.4,0,0,1,.221.249l.014.044a1.018,1.018,0,0,1,.043.163,23.74,23.74,0,0,1-1.527,13.7,15.125,15.125,0,0,1-4.233,6.078,6.8,6.8,0,0,0-2.159,3.03.828.828,0,0,0-.076.409,74.081,74.081,0,0,0,3.506,11.053,14.409,14.409,0,0,1,.077-5.8,51.936,51.936,0,0,1,2.536-7.979l.274-.708c.429-1.109.86-2.226,1.306-3.384a.407.407,0,0,1,.375-.258.387.387,0,0,1,.344.221l.144.279c.063.122.122.236.173.353a24.071,24.071,0,0,1,1.846,13.028A17.166,17.166,0,0,1,287.7,137.9a7.3,7.3,0,0,0-1.353,3.408,1.252,1.252,0,0,0,.123.784,61.533,61.533,0,0,0,5.2,7.9l-.022-.04a14.381,14.381,0,0,1-1.273-7.766c.121-2.05.349-4.1.568-6.076l.013-.114c.088-.793.176-1.585.256-2.379.046-.45.1-.9.151-1.357l.07-.618a.4.4,0,0,1,.213-.315c.217-.117.567.063.946.525a21.663,21.663,0,0,1,4.8,10.65,19.4,19.4,0,0,1-1,10.569.988.988,0,0,0-.033.3l.069,1.768a.6.6,0,0,0,.129.324,46.106,46.106,0,0,0,8.529,6.684,11.74,11.74,0,0,1-3.175-5.356,53.042,53.042,0,0,1-1.509-7.563l-.033-.223c-.132-.879-.27-1.757-.411-2.653l-.159-1.014a.411.411,0,0,1,.145-.384.39.39,0,0,1,.4-.056l.139.059c.148.063.277.118.4.182a17.649,17.649,0,0,1,9.084,16.559,8.214,8.214,0,0,0,.282,2.97.411.411,0,0,0,.141.2,45,45,0,0,0,8.014,2.671.4.4,0,0,1,.287.267.415.415,0,0,1-.073.394,6.545,6.545,0,0,0-.741,1.12.4.4,0,0,1-.435.2,44.487,44.487,0,0,1-6.221-1.945.731.731,0,0,0-.4-.078,12.667,12.667,0,0,0-1.423.286,1.8,1.8,0,0,0-.2.073,8.394,8.394,0,0,1-5.932,4.513,14.475,14.475,0,0,1-1.91.337,20.838,20.838,0,0,1-2.234.111c-1.12,0-1.918-.071-1.928-.072a20.159,20.159,0,0,1-6.479-1.76,6.056,6.056,0,0,1-2.323-1.748.416.416,0,0,1,.049-.556,20.155,20.155,0,0,1,5.937-3.85,14.763,14.763,0,0,1,8.675-1.062c.413.083.816.187,1.208.306a49.548,49.548,0,0,1-7.4-5.592.391.391,0,0,0-.176-.089c-.382-.065-.89-.146-1.41-.185a.384.384,0,0,0-.116.026,6.92,6.92,0,0,1-5.545,2.412c-.118,0-.237,0-.356-.007a17.185,17.185,0,0,1-7.55-2.126,18.77,18.77,0,0,1-5.213-3.784,13.088,13.088,0,0,1-.907-1.172l-.026-.036c-.118-.165-.237-.331-.36-.495a.413.413,0,0,1,.11-.6,12.892,12.892,0,0,1,1.263-.607,16.809,16.809,0,0,1,11.743-.471,12.351,12.351,0,0,1,3.559,1.887,63.864,63.864,0,0,1-5.839-8.28,1.3,1.3,0,0,0-.086-.132c-.155-.1-.314-.2-.472-.294a9.255,9.255,0,0,1-.854-.56c-.233-.179-.3-.184-.534-.028a3.53,3.53,0,0,1-1.058.43,8.624,8.624,0,0,1-6.167-.8,16.51,16.51,0,0,1-4.93-4.021,20.387,20.387,0,0,1-4.1-6.272,12.835,12.835,0,0,1-.415-1.354c-.052-.2-.1-.394-.161-.588a.408.408,0,0,1,.245-.5l.165-.013c.814,0,8.074.123,12.321,4.368a22.459,22.459,0,0,1,2.508,2.98,81.646,81.646,0,0,1-4.253-11.537l-.017-.059a.826.826,0,0,0-.048-.143l-1.111-1.571c-.042-.063-.047-.063-.112-.063-.029,0-.061,0-.1,0l-.237.015a7.754,7.754,0,0,1-1.713-.019,7.656,7.656,0,0,1-4.363-2.509,27.881,27.881,0,0,1-6.666-12.765,9.839,9.839,0,0,1-.223-1.73c-.019-.273-.04-.554-.07-.844A.419.419,0,0,1,263.738,106.591Z" transform="translate(-263.594 -33.983)" fill="#ebebeb"/>
</svg>
