<svg xmlns="http://www.w3.org/2000/svg" width="12.52" height="11.964" viewBox="0 0 12.52 11.964">
  <path id="linkedin" d="M0,6.39a1.3,1.3,0,0,1,.423-1A1.552,1.552,0,0,1,1.523,5,1.505,1.505,0,0,1,2.6,5.387a1.363,1.363,0,0,1,.423,1.039,1.273,1.273,0,0,1-.411.967,1.554,1.554,0,0,1-1.112.4H1.486a1.479,1.479,0,0,1-1.076-.4A1.339,1.339,0,0,1,0,6.39ZM.157,16.964V8.891H2.84v8.073Zm4.169,0H7.009V12.456a1.573,1.573,0,0,1,.61-1.347,1.313,1.313,0,0,1,.864-.284q1.353,0,1.353,1.825v4.314H12.52V12.335a3.889,3.889,0,0,0-.846-2.713A2.886,2.886,0,0,0,9.438,8.7a2.742,2.742,0,0,0-2.429,1.341v.024H7l.012-.024V8.891H4.326q.024.387.024,2.4T4.326,16.964Z" transform="translate(0 -5)" fill="#fff"/>
</svg>
