<?xml version="1.0" encoding="utf-8"?>
<!-- Generator: Adobe Illustrator 19.0.0, SVG Export Plug-In . SVG Version: 6.00 Build 0)  -->
<svg version="1.1" id="Layer_1" xmlns="http://www.w3.org/2000/svg" xmlns:xlink="http://www.w3.org/1999/xlink" x="0px" y="0px"
	 viewBox="0 0 222.2 80.8" style="enable-background:new 0 0 222.2 80.8;" xml:space="preserve">
<style type="text/css">
	.st0{opacity:0.26;}
	.st1{clip-path:url(#SVGID_2_);}
	.st2{filter:url(#Adobe_OpacityMaskFilter);}
	.st3{clip-path:url(#SVGID_4_);fill:url(#SVGID_6_);}
	.st4{clip-path:url(#SVGID_4_);mask:url(#SVGID_5_);fill:url(#SVGID_7_);}
	.st5{fill:#E0121A;}
	.st6{fill:#E00F1A;}
	.st7{filter:url(#Adobe_OpacityMaskFilter_1_);}
	.st8{clip-path:url(#SVGID_9_);fill:url(#SVGID_11_);}
	.st9{clip-path:url(#SVGID_9_);mask:url(#SVGID_10_);fill:url(#SVGID_12_);}
	.st10{filter:url(#Adobe_OpacityMaskFilter_2_);}
	.st11{clip-path:url(#SVGID_14_);fill:url(#SVGID_16_);}
	.st12{clip-path:url(#SVGID_14_);mask:url(#SVGID_15_);fill:url(#SVGID_17_);}
	.st13{filter:url(#Adobe_OpacityMaskFilter_3_);}
	.st14{clip-path:url(#SVGID_19_);fill:url(#SVGID_21_);}
	.st15{clip-path:url(#SVGID_19_);mask:url(#SVGID_20_);fill:url(#SVGID_22_);}
	.st16{fill:#E00C19;}
</style>
<g class="st0">
	<g>
		<defs>
			<rect id="SVGID_1_" x="5.5" y="39.4" width="46.6" height="11.3"/>
		</defs>
		<clipPath id="SVGID_2_">
			<use xlink:href="#SVGID_1_"  style="overflow:visible;"/>
		</clipPath>
		<g class="st1">
			<defs>
				<path id="SVGID_3_" d="M52.1,45.1c0,3.1-10.4,5.6-23.3,5.6S5.5,48.2,5.5,45.1c0-3.1,10.4-5.6,23.3-5.6S52.1,41.9,52.1,45.1"/>
			</defs>
			<clipPath id="SVGID_4_">
				<use xlink:href="#SVGID_3_"  style="overflow:visible;"/>
			</clipPath>
			<defs>
				<filter id="Adobe_OpacityMaskFilter" filterUnits="userSpaceOnUse" x="5.5" y="39.4" width="46.6" height="11.3">
					<feColorMatrix  type="matrix" values="1 0 0 0 0  0 1 0 0 0  0 0 1 0 0  0 0 0 1 0"/>
				</filter>
			</defs>
			<mask maskUnits="userSpaceOnUse" x="5.5" y="39.4" width="46.6" height="11.3" id="SVGID_5_">
				<g class="st2">
					
						<radialGradient id="SVGID_6_" cx="-6" cy="86.3333" r="0.6697" gradientTransform="matrix(34.7732 0 0 -8.4297 237.4123 772.8218)" gradientUnits="userSpaceOnUse">
						<stop  offset="0" style="stop-color:#FFFFFF"/>
						<stop  offset="4.950500e-003" style="stop-color:#FFFFFF"/>
						<stop  offset="1" style="stop-color:#000000"/>
					</radialGradient>
					<rect x="5.5" y="39.4" class="st3" width="46.6" height="11.3"/>
				</g>
			</mask>
			
				<radialGradient id="SVGID_7_" cx="-6" cy="86.3333" r="0.6697" gradientTransform="matrix(34.7732 0 0 -8.4297 237.4123 772.8218)" gradientUnits="userSpaceOnUse">
				<stop  offset="0" style="stop-color:#100F0D"/>
				<stop  offset="4.950500e-003" style="stop-color:#100F0D"/>
				<stop  offset="1" style="stop-color:#FFFFFF"/>
			</radialGradient>
			<rect x="5.5" y="39.4" class="st4" width="46.6" height="11.3"/>
		</g>
	</g>
</g>
<path class="st5" d="M26.8,25.4c0-1.7-1.4-3.9-3-4.8l-13.1-6.9c-1.6-0.9-3-0.2-3,1.6v13.8c0,1.7,1.4,3.9,3,4.7l13.1,6.9
	c1.6,0.9,3,0.2,3-1.6V25.4z"/>
<path class="st6" d="M25.5,40.5c-0.3,0-0.6-0.1-1-0.3l-13.1-6.9c-1.4-0.8-2.7-2.7-2.7-4.2V15.3c0-0.4,0.1-1.3,1-1.3
	c0.3,0,0.6,0.1,1,0.3l13.1,6.9c1.4,0.8,2.7,2.7,2.7,4.2v13.8c0,0.5-0.1,0.8-0.3,1C26,40.5,25.8,40.5,25.5,40.5"/>
<g>
	<defs>
		<path id="SVGID_8_" d="M9.4,15.3V19c0-0.4,0.1-1.3,1-1.3c0.3,0,0.6,0.1,1,0.3l13.1,6.9c1.4,0.8,2.7,2.7,2.7,4.2v-3.7
			c0-1.5-1.2-3.4-2.7-4.2l-13.1-6.9c-0.4-0.2-0.7-0.3-1-0.3C9.5,14,9.4,14.9,9.4,15.3"/>
	</defs>
	<clipPath id="SVGID_9_">
		<use xlink:href="#SVGID_8_"  style="overflow:visible;"/>
	</clipPath>
	<defs>
		<filter id="Adobe_OpacityMaskFilter_1_" filterUnits="userSpaceOnUse" x="2" y="5.3" width="32.5" height="32.5">
			<feColorMatrix  type="matrix" values="1 0 0 0 0  0 1 0 0 0  0 0 1 0 0  0 0 0 1 0"/>
		</filter>
	</defs>
	<mask maskUnits="userSpaceOnUse" x="2" y="5.3" width="32.5" height="32.5" id="SVGID_10_">
		<g class="st7">
			
				<linearGradient id="SVGID_11_" gradientUnits="userSpaceOnUse" x1="-6" y1="86.3512" x2="-5" y2="86.3512" gradientTransform="matrix(-14.3471 -11.511 -11.511 14.3471 932.1827 -1281.58)">
				<stop  offset="0" style="stop-color:#666666"/>
				<stop  offset="1" style="stop-color:#000000"/>
			</linearGradient>
			<polygon class="st8" points="20.2,37.8 2,23.2 16.3,5.3 34.5,19.9 			"/>
		</g>
	</mask>
	
		<linearGradient id="SVGID_12_" gradientUnits="userSpaceOnUse" x1="-6" y1="86.3512" x2="-5" y2="86.3512" gradientTransform="matrix(-14.3471 -11.511 -11.511 14.3471 932.1829 -1281.5798)">
		<stop  offset="0" style="stop-color:#FFFFFF"/>
		<stop  offset="1" style="stop-color:#FFFFFF"/>
	</linearGradient>
	<polygon class="st9" points="20.2,37.8 2,23.2 16.3,5.3 34.5,19.9 	"/>
</g>
<path class="st6" d="M24.9,19.2c1.6,0.9,4.3,0.9,6,0l13.1-6.9c1.6-0.9,1.6-2.3,0-3.2L30.9,2.2c-1.7-0.9-4.3-0.9-6,0L11.8,9.1
	c-1.6,0.9-1.6,2.3,0,3.2L24.9,19.2z"/>
<path class="st6" d="M27.9,19.2c-1,0-2-0.2-2.7-0.6l-13.1-6.9c-0.6-0.3-0.9-0.7-0.9-1c0-0.4,0.3-0.7,0.9-1l13.1-6.9
	c0.7-0.4,1.7-0.6,2.7-0.6c1,0,2,0.2,2.7,0.6l13.1,6.9c0.6,0.3,0.9,0.7,0.9,1c0,0.4-0.3,0.7-0.9,1l-13.1,6.9
	C29.9,19,28.9,19.2,27.9,19.2"/>
<g>
	<defs>
		<path id="SVGID_13_" d="M25.3,2.7L12.2,9.7c-0.6,0.3-0.9,0.7-0.9,1c0,0.4,0.3,0.7,0.9,1l1.2,0.6l11.8-6.2c0.7-0.4,1.7-0.6,2.7-0.6
			c1,0,2,0.2,2.7,0.6l11.9,6.3l1.3-0.7c0.6-0.3,0.9-0.7,0.9-1c0-0.4-0.3-0.7-0.9-1L30.6,2.7c-0.7-0.4-1.7-0.6-2.7-0.6
			C26.9,2.2,26,2.4,25.3,2.7"/>
	</defs>
	<clipPath id="SVGID_14_">
		<use xlink:href="#SVGID_13_"  style="overflow:visible;"/>
	</clipPath>
	<defs>
		<filter id="Adobe_OpacityMaskFilter_2_" filterUnits="userSpaceOnUse" x="11.3" y="2.2" width="33.3" height="10.2">
			<feColorMatrix  type="matrix" values="1 0 0 0 0  0 1 0 0 0  0 0 1 0 0  0 0 0 1 0"/>
		</filter>
	</defs>
	<mask maskUnits="userSpaceOnUse" x="11.3" y="2.2" width="33.3" height="10.2" id="SVGID_15_">
		<g class="st10">
			
				<linearGradient id="SVGID_16_" gradientUnits="userSpaceOnUse" x1="-6" y1="86.3333" x2="-5" y2="86.3333" gradientTransform="matrix(33.3121 0 0 -33.3121 211.1615 2883.2334)">
				<stop  offset="0" style="stop-color:#666666"/>
				<stop  offset="1" style="stop-color:#000000"/>
			</linearGradient>
			<rect x="11.3" y="2.2" class="st11" width="33.3" height="10.2"/>
		</g>
	</mask>
	
		<linearGradient id="SVGID_17_" gradientUnits="userSpaceOnUse" x1="-6" y1="86.3333" x2="-5" y2="86.3333" gradientTransform="matrix(33.3121 0 0 -33.3121 211.1615 2883.2334)">
		<stop  offset="0" style="stop-color:#FFFFFF"/>
		<stop  offset="1" style="stop-color:#FFFFFF"/>
	</linearGradient>
	<rect x="11.3" y="2.2" class="st12" width="33.3" height="10.2"/>
</g>
<path class="st6" d="M32.3,20.6c-1.6,0.9-3,3-3,4.8v13.8c0,1.7,1.3,2.5,3,1.6l13.1-6.9c1.6-0.9,3-3,3-4.7V15.3c0-1.7-1.4-2.5-3-1.6
	L32.3,20.6z"/>
<path class="st6" d="M30.9,40.5c-0.9,0-1-0.9-1-1.3V25.4c0-1.5,1.2-3.4,2.7-4.2l13.1-6.9c0.4-0.2,0.7-0.3,1-0.3c0.9,0,1,0.9,1,1.3
	v13.8c0,1.5-1.2,3.4-2.7,4.2l-13.1,6.9C31.6,40.4,31.2,40.5,30.9,40.5"/>
<g>
	<defs>
		<path id="SVGID_18_" d="M45.7,14.6l-13.1,6.9c-1.4,0.8-2.7,2.7-2.7,4.2v3.1c0-1.5,1.2-3.4,2.7-4.2l13.1-6.9c0.4-0.2,0.7-0.3,1-0.3
			c0.9,0,1,0.9,1,1.3v-3.1c0-0.4-0.1-1.3-1-1.3C46.4,14.3,46.1,14.4,45.7,14.6"/>
	</defs>
	<clipPath id="SVGID_19_">
		<use xlink:href="#SVGID_18_"  style="overflow:visible;"/>
	</clipPath>
	<defs>
		<filter id="Adobe_OpacityMaskFilter_3_" filterUnits="userSpaceOnUse" x="30" y="14.3" width="17.7" height="14.5">
			<feColorMatrix  type="matrix" values="1 0 0 0 0  0 1 0 0 0  0 0 1 0 0  0 0 0 1 0"/>
		</filter>
	</defs>
	<mask maskUnits="userSpaceOnUse" x="30" y="14.3" width="17.7" height="14.5" id="SVGID_20_">
		<g class="st13">
			
				<linearGradient id="SVGID_21_" gradientUnits="userSpaceOnUse" x1="-6" y1="86.3333" x2="-5" y2="86.3333" gradientTransform="matrix(17.7255 0 0 -17.7255 136.3185 1551.8866)">
				<stop  offset="0" style="stop-color:#666666"/>
				<stop  offset="1" style="stop-color:#000000"/>
			</linearGradient>
			<rect x="30" y="14.3" class="st14" width="17.7" height="14.5"/>
		</g>
	</mask>
	
		<linearGradient id="SVGID_22_" gradientUnits="userSpaceOnUse" x1="-6" y1="86.3333" x2="-5" y2="86.3333" gradientTransform="matrix(17.7255 0 0 -17.7255 136.3185 1551.8867)">
		<stop  offset="0" style="stop-color:#FFFFFF"/>
		<stop  offset="1" style="stop-color:#FFFFFF"/>
	</linearGradient>
	<rect x="30" y="14.3" class="st15" width="17.7" height="14.5"/>
</g>
<g>
	<path d="M53.4,34.3V9.8h7.7c1.5,0,2.8,0,3.8,0.1c1,0.1,1.9,0.2,2.5,0.3c1.1,0.2,2.2,0.7,3.1,1.3c1,0.7,1.7,1.5,2.2,2.6
		c0.5,1,0.8,2.1,0.8,3.4c0,1.9-0.5,3.4-1.6,4.6c-1,1.2-2.5,2-4.5,2.4l7.4,9.9h-8.3l-6.2-9.6v9.6H53.4z M60.3,21.4h1.4
		c1.6,0,2.8-0.2,3.5-0.7c0.7-0.5,1.1-1.3,1.1-2.3c0-1.2-0.3-2.1-1-2.6c-0.7-0.5-1.8-0.8-3.5-0.8h-1.5V21.4z"/>
	<path d="M96.1,27.1H81.9c0,1.3,0.4,2.3,1.1,3c0.7,0.7,1.7,1.1,3.1,1.1c1,0,1.8-0.2,2.5-0.5c0.7-0.4,1.2-0.9,1.6-1.5l4.9,1.8
		c-0.6,1.3-1.6,2.3-3.1,3c-1.5,0.7-3.3,1.1-5.5,1.1c-3.2,0-5.9-0.8-7.8-2.5c-2-1.6-2.9-3.8-2.9-6.5c0-2.6,1-4.8,2.9-6.6
		c2-1.7,4.4-2.6,7.5-2.6c3.1,0,5.5,0.9,7.3,2.6c0.9,0.9,1.6,2,2,3.2c0.4,1.2,0.7,2.6,0.7,4.1V27.1z M89.6,23.7
		c-0.1-0.9-0.5-1.7-1.2-2.3c-0.7-0.6-1.5-0.9-2.5-0.9c-1,0-1.9,0.3-2.5,0.8c-0.7,0.6-1.1,1.4-1.3,2.4H89.6z"/>
	<path d="M119.9,8.4v26h-6.1v-2.7c-0.8,1.2-1.8,2-2.8,2.5c-1,0.6-2.1,0.9-3.5,0.9c-2.6,0-4.7-0.8-6.2-2.5c-1.6-1.7-2.3-3.9-2.3-6.6
		c0-2.7,0.8-4.9,2.3-6.6c1.6-1.6,3.6-2.5,6-2.5c1.6,0,2.9,0.3,3.8,0.8c0.9,0.5,1.8,1.3,2.7,2.6c0-0.3-0.1-0.8-0.1-1.4
		c0-0.7-0.1-1.2-0.1-1.6V8.4H119.9z M114.1,25.9c0-1.3-0.4-2.4-1.1-3.1c-0.8-0.8-1.9-1.1-3.2-1.1c-1.3,0-2.4,0.4-3.1,1.1
		c-0.8,0.8-1.1,1.8-1.1,3.1c0,1.3,0.4,2.4,1.1,3.1c0.8,0.7,1.8,1.1,3.1,1.1c1.3,0,2.4-0.4,3.2-1.1C113.7,28.3,114.1,27.2,114.1,25.9
		z"/>
</g>
<g>
	<path class="st6" d="M150.3,10.8v7.3c-1.1-1-2.1-1.8-3-2.3c-1-0.5-2.1-0.7-3.2-0.7c-2.1,0-3.8,0.7-5.2,2c-0.5,0.5-0.8,1-1.1,1.5
		c-0.3,0.5-0.5,1.1-0.6,1.7c-0.1,0.6-0.2,1.3-0.2,2c0,2,0.7,3.6,2,4.9c1.3,1.3,3,1.9,5.1,1.9c1.1,0,2.2-0.2,3.2-0.7
		c0.9-0.4,1.9-1.2,3-2.2v7.3c-1.4,0.6-2.5,1-3.5,1.2c-1.2,0.3-2.4,0.4-3.5,0.4c-1.5,0-2.8-0.2-4.1-0.5c-1.3-0.3-2.4-0.8-3.4-1.4
		c-2-1.3-3.5-2.8-4.6-4.6c-1.1-1.9-1.6-4-1.6-6.3c0-1.9,0.3-3.6,1-5.1c0.3-0.7,0.7-1.5,1.2-2.1s1.1-1.4,1.8-2.1
		c1.3-1.2,2.7-2.1,4.4-2.7c1.6-0.6,3.4-0.9,5.3-0.9c1.1,0,2.3,0.1,3.5,0.4C148.1,9.9,149.2,10.3,150.3,10.8z"/>
	<path class="st6" d="M173.2,17.4v8.6c0,1.9-0.2,3.3-0.5,4.2c-0.3,0.9-0.9,1.7-1.7,2.5c-0.8,0.7-1.8,1.3-3.1,1.7
		c-1.2,0.4-2.7,0.6-4.4,0.6c-1.7,0-3.1-0.2-4.3-0.6c-1.2-0.4-2.3-0.9-3.1-1.7c-0.8-0.7-1.4-1.5-1.7-2.4c-0.3-0.9-0.5-2.3-0.5-4.3
		v-8.6h6.3v9c0,1.4,0.3,2.4,0.8,3c0.5,0.6,1.3,1,2.5,1c1.2,0,2-0.3,2.5-0.9c0.5-0.6,0.8-1.7,0.8-3.1v-9H173.2z"/>
	<path class="st6" d="M177.9,8.4h6.3v8.9c0,0.9,0,1.5,0,1.8c0,0.6-0.1,1-0.1,1.2c0.8-1.2,1.7-2.1,2.6-2.6c1-0.5,2.3-0.8,3.9-0.8
		c2.5,0,4.5,0.8,6.1,2.5c1.5,1.7,2.3,3.8,2.3,6.6c0,2.8-0.8,5-2.3,6.6c-1.6,1.7-3.6,2.5-6.3,2.5c-1.3,0-2.5-0.3-3.5-0.9
		c-1-0.5-2-1.4-2.8-2.5v2.7h-6.1V8.4z M183.8,25.9c0,1.3,0.4,2.4,1.2,3.1c0.7,0.7,1.7,1.1,3.1,1.1c1.3,0,2.4-0.4,3.1-1.1
		s1.1-1.8,1.1-3.1c0-1.3-0.4-2.4-1.1-3.1c-0.8-0.8-1.8-1.1-3.1-1.1c-1.3,0-2.4,0.4-3.1,1.1C184.1,23.5,183.8,24.6,183.8,25.9z"/>
	<path class="st6" d="M222.2,27.1H208c0,1.3,0.4,2.3,1.1,3c0.7,0.7,1.7,1.1,3.1,1.1c1,0,1.8-0.2,2.5-0.5c0.7-0.4,1.2-0.9,1.6-1.5
		l4.9,1.8c-0.6,1.3-1.6,2.3-3.1,3c-1.5,0.7-3.3,1.1-5.5,1.1c-3.2,0-5.9-0.8-7.8-2.5c-2-1.6-2.9-3.8-2.9-6.5c0-2.6,1-4.8,2.9-6.6
		c2-1.7,4.4-2.6,7.5-2.6c3.1,0,5.5,0.9,7.3,2.6c0.9,0.9,1.6,2,2,3.2c0.4,1.2,0.7,2.6,0.7,4.1V27.1z M215.7,23.7
		c-0.1-0.9-0.5-1.7-1.2-2.3c-0.7-0.6-1.5-0.9-2.5-0.9c-1,0-1.9,0.3-2.5,0.8c-0.7,0.6-1.1,1.4-1.3,2.4H215.7z"/>
</g>
<g>
	<path class="st16" d="M66,39.5v16.7h-3.6v-1.8c-0.5,0.7-1.1,1.3-1.7,1.6c-0.6,0.4-1.3,0.5-2,0.5c-1.5,0-2.8-0.5-3.7-1.6
		s-1.4-2.5-1.4-4.2c0-1.7,0.5-3.1,1.4-4.2c0.9-1.1,2.1-1.6,3.6-1.6c0.9,0,1.7,0.2,2.3,0.5c0.6,0.3,1.1,0.9,1.6,1.6
		c0-0.2-0.1-0.5-0.1-0.9c0-0.4,0-0.8,0-1.1v-5.7H66z M62.6,50.7c0-0.9-0.2-1.5-0.7-2c-0.5-0.5-1.1-0.7-1.9-0.7
		c-0.8,0-1.4,0.2-1.9,0.7c-0.5,0.5-0.7,1.2-0.7,2c0,0.9,0.2,1.5,0.7,2c0.4,0.5,1.1,0.7,1.9,0.7c0.8,0,1.4-0.2,1.9-0.7
		C62.4,52.2,62.6,51.6,62.6,50.7z"/>
	<path class="st16" d="M80.2,51.4h-8.4c0,0.8,0.2,1.5,0.6,1.9c0.4,0.5,1,0.7,1.8,0.7c0.6,0,1.1-0.1,1.5-0.3c0.4-0.2,0.7-0.6,0.9-1
		l2.9,1.2c-0.3,0.8-1,1.5-1.9,1.9c-0.9,0.5-2,0.7-3.3,0.7c-1.9,0-3.5-0.5-4.6-1.6c-1.2-1-1.7-2.4-1.7-4.1c0-1.7,0.6-3.1,1.7-4.2
		c1.2-1.1,2.6-1.7,4.4-1.7c1.8,0,3.2,0.6,4.3,1.7c0.5,0.6,0.9,1.3,1.2,2c0.3,0.8,0.4,1.6,0.4,2.6V51.4z M76.3,49.3
		c-0.1-0.6-0.3-1.1-0.7-1.5s-0.9-0.6-1.5-0.6c-0.6,0-1.1,0.2-1.5,0.5c-0.4,0.4-0.6,0.9-0.8,1.5H76.3z"/>
	<path class="st16" d="M82.3,56.1V39.5h3.9v16.7H82.3z"/>
	<path class="st16" d="M88.9,56.1V45.3h3.9v10.8H88.9z M89.4,42.5L89.4,42.5c0-0.4,0.2-0.7,0.4-1c0.3-0.3,0.6-0.4,1-0.4
		c0.4,0,0.8,0.1,1,0.4s0.4,0.6,0.4,1c0,0.4-0.1,0.8-0.4,1c-0.3,0.3-0.6,0.4-1,0.4c-0.4,0-0.8-0.1-1-0.4
		C89.6,43.2,89.4,42.9,89.4,42.5z"/>
	<path class="st16" d="M99.3,56.1l-4.9-10.8h4.1l1.9,4.8c0,0,0,0.1,0.1,0.2c0.2,0.5,0.3,1,0.4,1.5c0.1-0.4,0.2-0.9,0.4-1.4
		c0-0.1,0.1-0.2,0.1-0.3l1.9-4.8h4l-5,10.8H99.3z"/>
	<path class="st16" d="M119.3,51.4h-8.4c0,0.8,0.2,1.5,0.6,1.9c0.4,0.5,1,0.7,1.8,0.7c0.6,0,1.1-0.1,1.5-0.3c0.4-0.2,0.7-0.6,0.9-1
		l2.9,1.2c-0.3,0.8-1,1.5-1.9,1.9c-0.9,0.5-2,0.7-3.3,0.7c-1.9,0-3.5-0.5-4.6-1.6c-1.2-1-1.7-2.4-1.7-4.1c0-1.7,0.6-3.1,1.7-4.2
		c1.2-1.1,2.6-1.7,4.4-1.7c1.8,0,3.2,0.6,4.3,1.7c0.5,0.6,0.9,1.3,1.2,2c0.3,0.8,0.4,1.6,0.4,2.6V51.4z M115.5,49.3
		c-0.1-0.6-0.3-1.1-0.7-1.5s-0.9-0.6-1.5-0.6c-0.6,0-1.1,0.2-1.5,0.5c-0.4,0.4-0.6,0.9-0.8,1.5H115.5z"/>
	<path class="st16" d="M121.4,56.1V45.3h3.7v2.6c0.4-0.9,0.9-1.6,1.5-2.1c0.7-0.5,1.5-0.7,2.4-0.7c0.2,0,0.4,0,0.5,0
		c0.1,0,0.2,0,0.2,0c0.1,0,0.1,0,0.3,0l-0.4,3.5c-0.3-0.1-0.5-0.1-0.7-0.2c-0.3,0-0.5,0-0.6,0c-0.9,0-1.7,0.3-2.2,0.9
		c-0.5,0.6-0.8,1.4-0.8,2.4v4.5H121.4z"/>
	<path class="st16" d="M131.1,56.1V45.3h3.9v10.8H131.1z M131.6,42.5L131.6,42.5c0-0.4,0.2-0.7,0.4-1c0.3-0.3,0.6-0.4,1-0.4
		c0.4,0,0.8,0.1,1,0.4c0.3,0.3,0.4,0.6,0.4,1c0,0.4-0.1,0.8-0.4,1c-0.3,0.3-0.6,0.4-1,0.4c-0.4,0-0.8-0.1-1-0.4
		C131.7,43.2,131.6,42.9,131.6,42.5z"/>
	<path class="st16" d="M138,56.1V45.3h3.6v2.2c0.5-0.9,1.1-1.5,1.8-1.9c0.7-0.4,1.5-0.6,2.4-0.6c0.7,0,1.4,0.1,1.9,0.3
		c0.6,0.2,1,0.6,1.3,1c0.3,0.4,0.5,0.9,0.6,1.3c0.1,0.6,0.2,1.4,0.2,2.4v6.2h-3.9v-5.8c0-0.9-0.1-1.5-0.4-1.9
		c-0.3-0.4-0.7-0.6-1.4-0.6c-0.8,0-1.4,0.3-1.8,0.9c-0.4,0.6-0.6,1.5-0.6,2.9v4.6H138z"/>
	<path class="st16" d="M164.2,45.3v10.8c0,1.6-0.5,2.9-1.5,3.6c-0.5,0.4-1.1,0.7-1.9,0.9c-0.8,0.2-1.7,0.3-2.8,0.3
		c-1.7,0-3.1-0.3-4-0.9c-1-0.6-1.5-1.5-1.5-2.7h4c0.1,0.3,0.3,0.6,0.6,0.8c0.3,0.2,0.7,0.3,1.3,0.3c0.8,0,1.4-0.2,1.7-0.6
		c0.3-0.4,0.5-1.2,0.5-2.5v-1c-0.4,0.7-0.9,1.2-1.6,1.5c-0.6,0.3-1.4,0.5-2.3,0.5c-1.5,0-2.6-0.5-3.5-1.6c-0.4-0.5-0.8-1.1-1-1.8
		c-0.2-0.7-0.3-1.5-0.3-2.3c0-1.7,0.5-3.1,1.4-4.2c0.5-0.5,1-0.9,1.6-1.2c0.6-0.3,1.3-0.4,2.1-0.4c0.8,0,1.5,0.2,2.1,0.5
		c0.6,0.3,1.1,0.8,1.5,1.6v-1.7H164.2z M160.8,50.7c0-0.8-0.2-1.5-0.7-2c-0.5-0.5-1.1-0.7-1.9-0.7s-1.4,0.2-1.9,0.7
		c-0.5,0.5-0.7,1.1-0.7,2c0,0.8,0.2,1.5,0.7,2c0.5,0.5,1.1,0.7,1.9,0.7c0.8,0,1.4-0.2,1.9-0.7C160.5,52.2,160.8,51.5,160.8,50.7z"/>
</g>
<g>
	<path d="M191.5,45.3v10.8h-3.6v-1.8c-0.5,0.8-1.1,1.3-1.7,1.7s-1.4,0.5-2.2,0.5c-1.5,0-2.6-0.5-3.5-1.6c-0.4-0.5-0.8-1.1-1-1.8
		c-0.2-0.7-0.3-1.5-0.3-2.4c0-1.8,0.5-3.2,1.4-4.2s2.2-1.6,3.7-1.6c0.8,0,1.5,0.2,2.1,0.5c0.6,0.3,1.1,0.9,1.5,1.6v-1.8H191.5z
		 M188.1,50.7c0-0.9-0.2-1.5-0.7-2c-0.5-0.5-1.1-0.8-1.9-0.8c-0.8,0-1.4,0.2-1.8,0.7c-0.5,0.5-0.7,1.2-0.7,2c0,0.9,0.2,1.5,0.7,2
		c0.4,0.5,1.1,0.7,1.8,0.7c0.8,0,1.4-0.2,1.9-0.7C187.9,52.2,188.1,51.5,188.1,50.7z"/>
	<path d="M206.1,39.5v16.7h-3.6v-1.8c-0.5,0.7-1.1,1.3-1.7,1.6c-0.6,0.4-1.3,0.5-2,0.5c-1.5,0-2.8-0.5-3.7-1.6
		c-0.9-1.1-1.4-2.5-1.4-4.2c0-1.7,0.5-3.1,1.4-4.2c0.9-1.1,2.1-1.6,3.6-1.6c0.9,0,1.7,0.2,2.3,0.5c0.6,0.3,1.1,0.9,1.6,1.6
		c0-0.2-0.1-0.5-0.1-0.9c0-0.4,0-0.8,0-1.1v-5.7H206.1z M202.7,50.7c0-0.9-0.2-1.5-0.7-2c-0.5-0.5-1.1-0.7-1.9-0.7
		c-0.8,0-1.4,0.2-1.9,0.7c-0.5,0.5-0.7,1.2-0.7,2c0,0.9,0.2,1.5,0.7,2c0.4,0.5,1.1,0.7,1.9,0.7c0.8,0,1.4-0.2,1.9-0.7
		C202.5,52.2,202.7,51.6,202.7,50.7z"/>
	<path d="M207.8,55.2l0.8-2.9c0.6,0.5,1.2,0.9,1.9,1.1c0.7,0.3,1.4,0.4,2,0.4c0.5,0,0.9-0.1,1.1-0.2c0.3-0.2,0.4-0.4,0.4-0.7
		c0-0.5-0.5-0.8-1.5-1.1c-0.4-0.1-0.6-0.1-0.8-0.2c-1.2-0.3-2-0.8-2.5-1.3c-0.5-0.5-0.8-1.2-0.8-2c0-1,0.4-1.9,1.2-2.5
		c0.8-0.6,1.9-0.9,3.3-0.9c0.7,0,1.4,0.1,2.2,0.2c0.6,0.1,1.4,0.4,2.2,0.8l-0.8,2.6c-0.5-0.4-1-0.6-1.6-0.8c-0.5-0.2-1-0.3-1.6-0.3
		c-0.5,0-0.8,0.1-1,0.2c-0.2,0.1-0.3,0.3-0.3,0.6c0,0.4,0.5,0.7,1.5,1c0.3,0.1,0.5,0.2,0.5,0.2c1.3,0.4,2.3,0.8,2.8,1.3
		c0.5,0.5,0.8,1.2,0.8,2.1c0,1.1-0.4,2-1.3,2.7c-0.9,0.7-2,1-3.4,1c-1,0-1.9-0.1-2.7-0.3C209.3,56,208.6,55.7,207.8,55.2z"/>
</g>
<g>
	<path d="M20.9,77.9l3.6-9.5h3.6l3.6,9.5h-2.8l-0.5-1.7h-4l-0.5,1.7H20.9z M24.9,74.3h2.8l-1.1-3.1c0-0.1-0.1-0.2-0.1-0.5
		c-0.1-0.3-0.2-0.6-0.2-0.8c-0.1,0.2-0.1,0.4-0.2,0.7C26,70.8,26,71,25.9,71.2L24.9,74.3z"/>
	<path d="M37.2,77.9v-9.5H40l3.9,4.9c0.1,0.1,0.2,0.3,0.4,0.6c0.2,0.3,0.4,0.7,0.6,1.1c-0.1-0.5-0.1-0.8-0.1-1c0-0.3,0-0.6,0-0.8
		v-4.7h2.7v9.5h-2.7L40.7,73c-0.1-0.1-0.2-0.3-0.4-0.6c-0.2-0.3-0.4-0.6-0.6-1c0,0.3,0.1,0.7,0.1,1c0,0.4,0,0.7,0,0.8v4.7H37.2z"/>
	<path d="M57.1,75.1h-5.5c0,0.5,0.2,0.9,0.4,1.2c0.3,0.3,0.7,0.4,1.2,0.4c0.4,0,0.7-0.1,1-0.2c0.3-0.1,0.5-0.3,0.6-0.6l1.9,0.7
		c-0.2,0.5-0.6,0.9-1.2,1.2c-0.6,0.3-1.3,0.4-2.1,0.4c-1.3,0-2.3-0.3-3-1c-0.8-0.6-1.1-1.5-1.1-2.5c0-1,0.4-1.9,1.1-2.5
		c0.8-0.7,1.7-1,2.9-1c1.2,0,2.1,0.3,2.8,1c0.4,0.3,0.6,0.8,0.8,1.2c0.2,0.5,0.3,1,0.3,1.6V75.1z M54.6,73.8c0-0.4-0.2-0.7-0.5-0.9
		c-0.3-0.2-0.6-0.3-1-0.3c-0.4,0-0.7,0.1-1,0.3c-0.3,0.2-0.4,0.5-0.5,0.9H54.6z"/>
	<path d="M63.9,71.3l1.1,2.9c0,0,0,0,0,0.1c0.2,0.4,0.3,0.7,0.3,1c0-0.1,0.1-0.2,0.1-0.4c0.1-0.2,0.1-0.4,0.2-0.6l1.1-2.9h2.6
		l-3,6.5h-1.8l-1.1-3c0-0.1-0.1-0.3-0.1-0.5c0-0.1-0.1-0.2-0.1-0.3c0-0.1,0-0.1-0.1-0.2c-0.1,0.3-0.2,0.7-0.3,1l0,0l-1.1,3H60
		l-3-6.5h2.6l1.1,2.9c0,0.1,0.1,0.2,0.1,0.3c0,0.1,0.1,0.2,0.1,0.2c0.1,0.2,0.1,0.3,0.1,0.5c0-0.2,0.1-0.5,0.3-0.9
		c0-0.1,0-0.1,0-0.1l1.1-2.9H63.9z"/>
	<path d="M77.7,68.8v2.8c-0.4-0.4-0.8-0.7-1.2-0.9c-0.4-0.2-0.8-0.3-1.3-0.3c-0.8,0-1.5,0.3-2,0.8c-0.2,0.2-0.3,0.4-0.4,0.6
		c-0.1,0.2-0.2,0.4-0.2,0.7c-0.1,0.2-0.1,0.5-0.1,0.8c0,0.8,0.3,1.4,0.8,1.9c0.5,0.5,1.2,0.7,2,0.7c0.4,0,0.8-0.1,1.3-0.3
		c0.4-0.2,0.7-0.5,1.2-0.9v2.8c-0.5,0.2-1,0.4-1.3,0.4c-0.5,0.1-0.9,0.1-1.4,0.1c-0.6,0-1.1-0.1-1.6-0.2c-0.5-0.1-0.9-0.3-1.3-0.6
		c-0.8-0.5-1.4-1.1-1.8-1.8c-0.4-0.7-0.6-1.5-0.6-2.4c0-0.7,0.1-1.4,0.4-2c0.1-0.3,0.3-0.6,0.5-0.8c0.2-0.3,0.4-0.5,0.7-0.8
		c0.5-0.5,1.1-0.8,1.7-1c0.6-0.2,1.3-0.3,2.1-0.3c0.4,0,0.9,0,1.4,0.1C76.8,68.4,77.2,68.6,77.7,68.8z"/>
	<path d="M86.7,74.6c0,0.5-0.1,0.9-0.3,1.3c-0.2,0.4-0.5,0.8-0.9,1.1c-0.4,0.4-0.8,0.6-1.3,0.8c-0.5,0.2-1,0.3-1.5,0.3
		c-0.6,0-1.1-0.1-1.5-0.3c-0.5-0.2-0.9-0.4-1.3-0.8c-0.4-0.3-0.7-0.7-0.9-1.1c-0.2-0.4-0.3-0.8-0.3-1.3c0-0.5,0.1-0.9,0.3-1.4
		c0.2-0.4,0.5-0.8,0.9-1.1c0.4-0.3,0.8-0.6,1.3-0.8c0.5-0.2,1-0.2,1.5-0.2c0.6,0,1.1,0.1,1.5,0.2c0.5,0.2,0.9,0.4,1.3,0.8
		c0.4,0.3,0.7,0.7,0.9,1.1C86.6,73.7,86.7,74.1,86.7,74.6z M84.2,74.6c0-0.5-0.1-0.9-0.4-1.2c-0.3-0.3-0.6-0.4-1.1-0.4
		c-0.5,0-0.8,0.1-1.1,0.4c-0.3,0.3-0.4,0.7-0.4,1.2c0,0.5,0.1,0.9,0.4,1.1c0.3,0.3,0.7,0.4,1.1,0.4s0.8-0.1,1.1-0.4
		C84.1,75.5,84.2,75.1,84.2,74.6z"/>
	<path d="M87.1,77.9l3.6-9.5h3.6l3.6,9.5H95l-0.5-1.7h-4l-0.5,1.7H87.1z M91.1,74.3h2.8l-1.1-3.1c0-0.1-0.1-0.2-0.1-0.5
		c-0.1-0.3-0.2-0.6-0.2-0.8c-0.1,0.2-0.1,0.4-0.2,0.7c-0.1,0.2-0.1,0.4-0.2,0.6L91.1,74.3z"/>
	<path d="M106.4,67.9v10h-2.3v-1.1c-0.3,0.4-0.7,0.8-1.1,1c-0.4,0.2-0.8,0.3-1.3,0.3c-1,0-1.8-0.3-2.4-1c-0.6-0.6-0.9-1.5-0.9-2.6
		c0-1,0.3-1.9,0.9-2.5c0.6-0.6,1.4-1,2.3-1c0.6,0,1.1,0.1,1.5,0.3c0.4,0.2,0.7,0.5,1,1c0-0.1,0-0.3-0.1-0.5c0-0.3,0-0.5,0-0.6v-3.4
		H106.4z M104.2,74.6c0-0.5-0.1-0.9-0.4-1.2c-0.3-0.3-0.7-0.4-1.2-0.4c-0.5,0-0.9,0.1-1.2,0.4c-0.3,0.3-0.4,0.7-0.4,1.2
		c0,0.5,0.1,0.9,0.4,1.2c0.3,0.3,0.7,0.4,1.2,0.4c0.5,0,0.9-0.1,1.2-0.4C104,75.5,104.2,75.1,104.2,74.6z"/>
	<path d="M115.6,68.4l1.3,4.5c0.1,0.2,0.1,0.4,0.2,0.6c0,0.1,0,0.2,0.1,0.4c0,0.2,0.1,0.3,0.1,0.4c0.1-0.3,0.1-0.6,0.2-0.8
		c0-0.1,0.1-0.3,0.1-0.6l1.2-4.5h2.9l-2.9,9.5H116l-1.3-4c-0.1-0.3-0.2-0.6-0.2-0.8c0,0,0-0.1,0-0.2c0-0.1,0-0.2-0.1-0.3
		c0,0,0,0.2-0.1,0.4c-0.1,0.3-0.2,0.6-0.2,0.9l-1.3,4h-2.6l-2.9-9.5h2.9l1.2,4.5c0,0.2,0.1,0.4,0.2,0.7c0.1,0.3,0.1,0.6,0.1,0.7
		c0.1-0.3,0.1-0.5,0.1-0.6c0.1-0.4,0.2-0.6,0.2-0.8l1.3-4.5H115.6z"/>
	<path d="M122.6,77.9v-6.5h2.5v6.5H122.6z M122.9,69.7L122.9,69.7c0-0.2,0.1-0.4,0.3-0.6c0.2-0.2,0.4-0.3,0.7-0.3
		c0.3,0,0.5,0.1,0.7,0.2s0.3,0.4,0.3,0.6c0,0.3-0.1,0.5-0.3,0.6c-0.2,0.2-0.4,0.3-0.7,0.3c-0.3,0-0.5-0.1-0.7-0.3
		C123,70.1,122.9,69.9,122.9,69.7z"/>
	<path d="M127.2,77.9v-6.5h2.3v1.3c0.3-0.5,0.7-0.9,1.2-1.2c0.4-0.2,1-0.4,1.6-0.4c0.5,0,0.9,0.1,1.3,0.2c0.4,0.1,0.7,0.3,0.9,0.6
		c0.2,0.3,0.3,0.5,0.4,0.8c0.1,0.4,0.1,0.8,0.1,1.4v3.7h-2.5v-3.5c0-0.5-0.1-0.9-0.3-1.1c-0.2-0.2-0.5-0.4-0.9-0.4
		c-0.5,0-0.9,0.2-1.2,0.5c-0.2,0.4-0.4,0.9-0.4,1.7v2.7H127.2z"/>
	<path d="M144.5,67.9v10h-2.3v-1.1c-0.3,0.4-0.7,0.8-1.1,1c-0.4,0.2-0.8,0.3-1.3,0.3c-1,0-1.8-0.3-2.4-1c-0.6-0.6-0.9-1.5-0.9-2.6
		c0-1,0.3-1.9,0.9-2.5c0.6-0.6,1.4-1,2.3-1c0.6,0,1.1,0.1,1.5,0.3c0.4,0.2,0.7,0.5,1,1c0-0.1,0-0.3-0.1-0.5c0-0.3,0-0.5,0-0.6v-3.4
		H144.5z M142.2,74.6c0-0.5-0.1-0.9-0.4-1.2c-0.3-0.3-0.7-0.4-1.2-0.4c-0.5,0-0.9,0.1-1.2,0.4c-0.3,0.3-0.4,0.7-0.4,1.2
		c0,0.5,0.1,0.9,0.4,1.2c0.3,0.3,0.7,0.4,1.2,0.4c0.5,0,0.9-0.1,1.2-0.4C142.1,75.5,142.2,75.1,142.2,74.6z"/>
	<path d="M158.7,68.8v2.8c-0.4-0.4-0.8-0.7-1.2-0.9c-0.4-0.2-0.8-0.3-1.3-0.3c-0.8,0-1.5,0.3-2,0.8c-0.2,0.2-0.3,0.4-0.4,0.6
		c-0.1,0.2-0.2,0.4-0.2,0.7c-0.1,0.2-0.1,0.5-0.1,0.8c0,0.8,0.3,1.4,0.8,1.9c0.5,0.5,1.2,0.7,2,0.7c0.4,0,0.8-0.1,1.3-0.3
		c0.4-0.2,0.7-0.5,1.2-0.9v2.8c-0.5,0.2-1,0.4-1.3,0.4c-0.5,0.1-0.9,0.1-1.4,0.1c-0.6,0-1.1-0.1-1.6-0.2c-0.5-0.1-0.9-0.3-1.3-0.6
		c-0.8-0.5-1.4-1.1-1.8-1.8c-0.4-0.7-0.6-1.5-0.6-2.4c0-0.7,0.1-1.4,0.4-2c0.1-0.3,0.3-0.6,0.5-0.8c0.2-0.3,0.4-0.5,0.7-0.8
		c0.5-0.5,1.1-0.8,1.7-1c0.6-0.2,1.3-0.3,2.1-0.3c0.4,0,0.9,0,1.4,0.1C157.8,68.4,158.2,68.6,158.7,68.8z"/>
	<path d="M167.7,74.6c0,0.5-0.1,0.9-0.3,1.3c-0.2,0.4-0.5,0.8-0.9,1.1c-0.4,0.4-0.8,0.6-1.3,0.8c-0.5,0.2-1,0.3-1.5,0.3
		c-0.6,0-1.1-0.1-1.5-0.3c-0.5-0.2-0.9-0.4-1.3-0.8c-0.4-0.3-0.7-0.7-0.9-1.1c-0.2-0.4-0.3-0.8-0.3-1.3c0-0.5,0.1-0.9,0.3-1.4
		c0.2-0.4,0.5-0.8,0.9-1.1c0.4-0.3,0.8-0.6,1.3-0.8c0.5-0.2,1-0.2,1.5-0.2c0.6,0,1.1,0.1,1.5,0.2c0.5,0.2,0.9,0.4,1.3,0.8
		c0.4,0.3,0.7,0.7,0.9,1.1C167.6,73.7,167.7,74.1,167.7,74.6z M165.2,74.6c0-0.5-0.1-0.9-0.4-1.2c-0.3-0.3-0.6-0.4-1.1-0.4
		c-0.5,0-0.8,0.1-1.1,0.4c-0.3,0.3-0.4,0.7-0.4,1.2c0,0.5,0.1,0.9,0.4,1.1c0.3,0.3,0.7,0.4,1.1,0.4c0.5,0,0.8-0.1,1.1-0.4
		C165.1,75.5,165.2,75.1,165.2,74.6z"/>
	<path d="M178.7,77.9v-3.6c0-0.6-0.1-0.9-0.2-1.2c-0.2-0.2-0.4-0.3-0.8-0.3c-0.5,0-0.8,0.1-1,0.4c-0.2,0.3-0.3,0.9-0.3,1.8v2.8h-2.4
		v-3.6c0-0.6-0.1-1-0.2-1.2c-0.1-0.2-0.4-0.3-0.8-0.3c-0.5,0-0.8,0.1-1,0.4c-0.2,0.3-0.3,0.9-0.3,1.9v2.8h-2.5v-6.5h2.5v1.1
		c0.3-0.5,0.7-0.8,1-1c0.4-0.2,0.8-0.3,1.4-0.3c0.6,0,1.1,0.1,1.4,0.3c0.4,0.2,0.6,0.5,0.8,0.9c0.3-0.4,0.6-0.7,1-0.9
		c0.4-0.2,0.9-0.3,1.4-0.3c0.4,0,0.8,0.1,1.1,0.2c0.3,0.1,0.6,0.3,0.8,0.6c0.2,0.2,0.3,0.4,0.4,0.7c0.1,0.3,0.1,0.7,0.1,1.4v0.1v3.7
		H178.7z"/>
	<path d="M183.3,80.8v-9.4h2.3v1.1c0.3-0.4,0.7-0.7,1.1-1c0.4-0.2,0.8-0.3,1.3-0.3c0.5,0,1,0.1,1.4,0.2c0.4,0.2,0.8,0.4,1.1,0.7
		c0.6,0.6,0.9,1.5,0.9,2.6c0,1-0.3,1.9-0.9,2.5c-0.3,0.3-0.6,0.6-1,0.7c-0.4,0.2-0.8,0.2-1.3,0.2c-0.6,0-1.1-0.1-1.5-0.3
		c-0.4-0.2-0.7-0.5-1-1c0,0.1,0,0.3,0.1,0.5c0,0.1,0,0.4,0,0.7v2.8H183.3z M185.5,74.6c0,0.5,0.1,0.9,0.4,1.2
		c0.3,0.3,0.7,0.4,1.2,0.4c0.5,0,0.9-0.1,1.2-0.4c0.3-0.3,0.4-0.7,0.4-1.2c0-0.5-0.1-0.9-0.4-1.2c-0.3-0.3-0.7-0.4-1.2-0.4
		c-0.5,0-0.9,0.1-1.2,0.4C185.7,73.7,185.5,74.1,185.5,74.6z"/>
	<path d="M200.6,71.3v6.5h-2.3v-1.1c-0.3,0.5-0.7,0.8-1.1,1c-0.4,0.2-0.9,0.3-1.5,0.3c-1,0-1.7-0.3-2.3-1c-0.3-0.3-0.5-0.7-0.6-1.1
		c-0.1-0.4-0.2-0.9-0.2-1.4c0-1.1,0.3-1.9,0.9-2.5c0.6-0.6,1.4-0.9,2.4-0.9c0.5,0,1,0.1,1.4,0.3c0.4,0.2,0.7,0.5,1,1v-1.1H200.6z
		 M198.4,74.6c0-0.5-0.1-0.9-0.4-1.2c-0.3-0.3-0.7-0.5-1.2-0.5c-0.5,0-0.9,0.1-1.2,0.4c-0.3,0.3-0.5,0.7-0.5,1.2
		c0,0.5,0.2,0.9,0.5,1.2c0.3,0.3,0.7,0.4,1.2,0.4c0.5,0,0.9-0.1,1.2-0.4S198.4,75.1,198.4,74.6z"/>
	<path d="M202.5,77.9v-6.5h2.3v1.3c0.3-0.5,0.7-0.9,1.2-1.2c0.4-0.2,1-0.4,1.6-0.4c0.5,0,0.9,0.1,1.3,0.2c0.4,0.1,0.7,0.3,0.9,0.6
		c0.2,0.3,0.3,0.5,0.4,0.8c0.1,0.4,0.1,0.8,0.1,1.4v3.7h-2.5v-3.5c0-0.5-0.1-0.9-0.3-1.1c-0.2-0.2-0.5-0.4-0.9-0.4
		c-0.5,0-0.9,0.2-1.2,0.5c-0.2,0.4-0.4,0.9-0.4,1.7v2.7H202.5z"/>
	<path d="M211.3,80.8l2-3.9l-2.9-5.5h2.8l1,2.4c0.1,0.2,0.2,0.4,0.2,0.6c0.1,0.2,0.1,0.3,0.1,0.5c0-0.2,0.1-0.3,0.1-0.5
		c0-0.2,0.1-0.3,0.2-0.5l1-2.4h2.7l-4.5,9.4H211.3z"/>
</g>
</svg>
