<svg xmlns="http://www.w3.org/2000/svg" width="18" height="18" viewBox="0 0 18 18">
  <path id="Icon_awesome-phone-square-alt" data-name="Icon awesome-phone-square-alt" d="M16.071,2.25H1.929A1.929,1.929,0,0,0,0,4.179V18.321A1.929,1.929,0,0,0,1.929,20.25H16.071A1.929,1.929,0,0,0,18,18.321V4.179A1.929,1.929,0,0,0,16.071,2.25ZM15.413,14.6l-.6,2.612a.6.6,0,0,1-.587.467A11.653,11.653,0,0,1,2.571,6.027a.631.631,0,0,1,.467-.587l2.612-.6a.732.732,0,0,1,.135-.016.654.654,0,0,1,.554.365L7.545,8a.719.719,0,0,1,.049.237.683.683,0,0,1-.221.466L5.85,9.949A9.318,9.318,0,0,0,10.3,14.4l1.246-1.522a.683.683,0,0,1,.466-.221.717.717,0,0,1,.237.049l2.812,1.205a.653.653,0,0,1,.365.554.7.7,0,0,1-.016.135Z" transform="translate(0 -2.25)" fill="#fff"/>
</svg>
