<svg xmlns="http://www.w3.org/2000/svg" xmlns:xlink="http://www.w3.org/1999/xlink" width="60" height="60" viewBox="0 0 60 60">
  <defs>
    <linearGradient id="linear-gradient" x1="0.5" x2="0.5" y2="1" gradientUnits="objectBoundingBox">
      <stop offset="0" stop-color="#af1519"/>
      <stop offset="1" stop-color="#e32d2a"/>
    </linearGradient>
  </defs>
  <g id="Group_28" data-name="Group 28" transform="translate(-747 -2160)">
    <rect id="Rectangle_7" data-name="Rectangle 7" width="60" height="60" rx="10" transform="translate(747 2160)" fill="#f5f5f5"/>
    <path id="Layer_2" data-name="Layer 2" d="M5.5,24.5A1.5,1.5,0,0,0,7,26h3v4.5A1.5,1.5,0,0,0,11.5,32h9A1.5,1.5,0,0,0,22,30.5V26h3a1.5,1.5,0,0,0,1.5-1.5V14H28V11H22V2H19v9H13V2H10v9H4v3H5.5ZM19,29H13V26h6Zm4.5-15v9H8.5V14Z" transform="translate(761 2173)" fill="url(#linear-gradient)"/>
  </g>
</svg>
