<svg xmlns="http://www.w3.org/2000/svg" width="840" height="80" viewBox="0 0 840 80">
  <g id="Group_129" data-name="Group 129" transform="translate(-258 -3575)">
    <g id="Group_85" data-name="Group 85" transform="translate(29 1043)">
      <circle id="Ellipse_18" data-name="Ellipse 18" cx="40" cy="40" r="40" transform="translate(229 2532)" fill="#ff2424" opacity="0.4"/>
      <circle id="Ellipse_19" data-name="Ellipse 19" cx="30" cy="30" r="30" transform="translate(239 2542)" fill="#ff2424" opacity="0.47"/>
      <circle id="Ellipse_20" data-name="Ellipse 20" cx="20" cy="20" r="20" transform="translate(249 2552)" fill="#ff2424"/>
    </g>
    <g id="Group_86" data-name="Group 86" transform="translate(409 1043)">
      <circle id="Ellipse_18-2" data-name="Ellipse 18" cx="40" cy="40" r="40" transform="translate(229 2532)" fill="#ff2424" opacity="0.4"/>
      <circle id="Ellipse_19-2" data-name="Ellipse 19" cx="30" cy="30" r="30" transform="translate(239 2542)" fill="#ff2424" opacity="0.47"/>
      <circle id="Ellipse_20-2" data-name="Ellipse 20" cx="20" cy="20" r="20" transform="translate(249 2552)" fill="#ff2424"/>
    </g>
    <g id="Group_87" data-name="Group 87" transform="translate(789 1043)">
      <circle id="Ellipse_18-3" data-name="Ellipse 18" cx="40" cy="40" r="40" transform="translate(229 2532)" fill="#ff2424" opacity="0.4"/>
      <circle id="Ellipse_19-3" data-name="Ellipse 19" cx="30" cy="30" r="30" transform="translate(239 2542)" fill="#ff2424" opacity="0.47"/>
      <circle id="Ellipse_20-3" data-name="Ellipse 20" cx="20" cy="20" r="20" transform="translate(249 2552)" fill="#ff2424"/>
    </g>
    <path id="comment" d="M20,9.424V20H10.019A10,10,0,1,1,20,9.372ZM10.837,5.833h-5V7.5h5Zm3.333,3.333H5.837v1.667h8.333Zm0,3.333H5.837v1.667h8.333Z" transform="translate(667.986 3605.5)" fill="#fff"/>
    <g id="layers" transform="translate(287.904 3604.772)">
      <path id="Path_108" data-name="Path 108" d="M18.916,10.952,10.1,16.246,1.275,10.952A.841.841,0,0,0,.409,12.4l9.254,5.552a.841.841,0,0,0,.867,0L19.784,12.4a.841.841,0,0,0-.866-1.443Z" transform="translate(0 -1.683)" fill="#fff"/>
      <path id="Path_109" data-name="Path 109" d="M18.916,15.52,10.1,20.813,1.275,15.52a.841.841,0,0,0-.866,1.443l9.254,5.552a.841.841,0,0,0,.867,0l9.254-5.552a.841.841,0,1,0-.866-1.443Z" transform="translate(0 -2.408)" fill="#fff"/>
      <path id="Path_110" data-name="Path 110" d="M.408,7.067l8.4,5.04a2.5,2.5,0,0,0,2.576,0l8.4-5.04a.841.841,0,0,0,0-1.442l-8.4-5.04a2.5,2.5,0,0,0-2.576,0l-8.4,5.04a.841.841,0,0,0,0,1.442Z" transform="translate(0)" fill="#fff"/>
    </g>
    <path id="megaphone" d="M19.167,13.333a.833.833,0,0,1-.372-.087l-1.667-.833a.834.834,0,1,1,.745-1.492l1.667.833a.833.833,0,0,1-.373,1.579ZM17.872,5.75l1.667-.833a.834.834,0,0,0-.745-1.492l-1.667.833a.834.834,0,1,0,.745,1.492ZM20,8.333a.833.833,0,0,0-.833-.833H17.5a.833.833,0,1,0,0,1.667h1.667A.833.833,0,0,0,20,8.333Zm-5,7.5v-15a.833.833,0,0,0-1.667,0c0,2.457-2.153,3.333-4.167,3.333H3.333A3.333,3.333,0,0,0,0,7.5V9.167A3.333,3.333,0,0,0,3.333,12.5H9.167c2.014,0,4.167.876,4.167,3.333a.833.833,0,0,0,1.667,0ZM6.822,14.167H3.333a5,5,0,0,1-1.152-.139l2.083,4.652A2.226,2.226,0,0,0,6.3,20a2.052,2.052,0,0,0,1.868-2.893Z" transform="translate(1047.999 3605)" fill="#fff"/>
    <line id="Line_15" data-name="Line 15" x2="260" transform="translate(358 3615.5)" fill="none" stroke="#d1d1d1" stroke-width="1"/>
    <line id="Line_16" data-name="Line 16" x2="260" transform="translate(738 3615.5)" fill="none" stroke="#d1d1d1" stroke-width="1"/>
  </g>
</svg>
