<svg xmlns="http://www.w3.org/2000/svg" xmlns:xlink="http://www.w3.org/1999/xlink" width="208.299" height="70" viewBox="0 0 208.299 70">
  <defs>
    <linearGradient id="linear-gradient" y1="0.5" x2="1.001" y2="0.5" gradientUnits="objectBoundingBox">
      <stop offset="0" stop-color="#7f0003"/>
      <stop offset="1" stop-color="#e32d2a"/>
    </linearGradient>
  </defs>
  <g id="XMLID_1_" transform="translate(-19.5 -22)">
    <g id="XMLID_2_" transform="translate(19.5 22)">
      <path id="XMLID_22_" d="M49.8,22,19.5,39.486V74.514L49.8,92l30.3-17.486V39.486ZM48.643,77,32.254,67.532l.058-18.813L48.7,58.183ZM49.8,55.875,33.465,46.411l16.274-9.464,16.389,9.464ZM50.951,77V58.183L67.34,48.719,67.4,67.532Z" transform="translate(-19.5 -22)" fill="url(#linear-gradient)"/>
      <path id="XMLID_13_" d="M19.5,39.486l13.965,6.925,16.274-9.464L49.8,22Z" transform="translate(-19.5 -22)" fill="#202020" opacity="0.47"/>
    </g>
    <g id="XMLID_45_" transform="translate(92.3 36.138)">
      <path id="XMLID_46_" d="M154.628,76.784h-3.462a.765.765,0,0,1-.866-.866V51.566a.765.765,0,0,1,.866-.866H160.8a6.838,6.838,0,0,1,4.963,1.731,6.5,6.5,0,0,1,1.789,4.905V60.51q0,4.588-3.636,6.059v.173l4.328,9.06c.231.635,0,.981-.693.981h-3.289a2.242,2.242,0,0,1-1.039-.173,1.115,1.115,0,0,1-.519-.692l-4.04-8.772h-2.712c-.346,0-.462.173-.462.462v8.31A.765.765,0,0,1,154.628,76.784ZM155.9,63.05h3.982a2.888,2.888,0,0,0,1.9-.519,2.316,2.316,0,0,0,.635-1.789V57.567a2.458,2.458,0,0,0-.635-1.847,2.6,2.6,0,0,0-1.9-.577H155.9a.425.425,0,0,0-.462.462v6.983C155.494,62.876,155.609,63.05,155.9,63.05Z" transform="translate(-150.3 -48.276)" fill="#fff"/>
      <path id="XMLID_49_" d="M203.039,80.717h-8.945a6.747,6.747,0,0,1-4.963-1.731,6.6,6.6,0,0,1-1.731-4.905V66.636a6.6,6.6,0,0,1,1.731-4.905A6.746,6.746,0,0,1,194.094,60h3.232a6.746,6.746,0,0,1,4.963,1.731,6.6,6.6,0,0,1,1.731,4.905v5.136a.765.765,0,0,1-.866.866H192.94c-.346,0-.462.173-.462.462v.866A2.454,2.454,0,0,0,193,75.754a2.616,2.616,0,0,0,1.847.519h8.195a.765.765,0,0,1,.866.866v2.655a.928.928,0,0,1-.173.635A.972.972,0,0,1,203.039,80.717Zm-10.1-11.484h5.54a.425.425,0,0,0,.462-.462V66.81a1.96,1.96,0,0,0-2.366-2.366h-1.731a1.96,1.96,0,0,0-2.366,2.366v1.962C192.536,69.06,192.651,69.233,192.94,69.233Z" transform="translate(-165.99 -52.209)" fill="#fff"/>
      <path id="XMLID_52_" d="M230.121,75.008h-1.674a6.189,6.189,0,0,1-4.732-1.731,6.8,6.8,0,0,1-1.616-4.905V60.927a6.8,6.8,0,0,1,1.616-4.905,6.189,6.189,0,0,1,4.732-1.731h1.674a5.456,5.456,0,0,1,2.366.519,3.039,3.039,0,0,1,1.558,1.616h.173v-9.06a.765.765,0,0,1,.866-.866h3.462a.765.765,0,0,1,.866.866V74.2a.765.765,0,0,1-.866.866h-3.462a.765.765,0,0,1-.866-.866V72.873h-.173a2.856,2.856,0,0,1-1.558,1.616A5.645,5.645,0,0,1,230.121,75.008Zm4.155-7.5v-5.6c0-2.077-.923-3.059-2.828-3.059H229.6a1.96,1.96,0,0,0-2.366,2.366v6.925a1.96,1.96,0,0,0,2.366,2.366h1.847C233.3,70.564,234.276,69.526,234.276,67.506Z" transform="translate(-180.666 -46.5)" fill="#fff"/>
      <path id="XMLID_55_" d="M272.546,79.375V80.3a.425.425,0,0,1-.462.462h-5.829A5.526,5.526,0,0,1,262.1,79.2a5.631,5.631,0,0,1-1.5-4.213V65.871a5.868,5.868,0,0,1,1.5-4.213,5.616,5.616,0,0,1,4.155-1.558h5.829a.425.425,0,0,1,.462.462v.981c0,.289-.173.4-.462.4h-5.655a3.619,3.619,0,0,0-2.828,1.039,4.209,4.209,0,0,0-.981,2.943v9a4.209,4.209,0,0,0,.981,2.943,3.7,3.7,0,0,0,2.828,1.039h5.655C272.372,78.971,272.546,79.086,272.546,79.375Z" transform="translate(-196.948 -52.252)" fill="#fff"/>
      <path id="XMLID_57_" d="M296.852,80.717H294.2a5.392,5.392,0,0,1-4.1-1.558,5.868,5.868,0,0,1-1.5-4.213V60.519c0-.346.115-.462.4-.462h1.154a.425.425,0,0,1,.462.462V74.889a4.209,4.209,0,0,0,.981,2.943,3.7,3.7,0,0,0,2.828,1.039h2.655a4.27,4.27,0,0,0,3.059-1.039,3.79,3.79,0,0,0,1.1-2.943V60.462c0-.346.173-.462.462-.462h1.154c.289,0,.4.173.4.462V80.2c0,.346-.115.462-.4.462H301.7a.425.425,0,0,1-.462-.462V78.582h-.173C300.372,80.025,298.987,80.717,296.852,80.717Z" transform="translate(-208.79 -52.209)" fill="#fff"/>
      <path id="XMLID_59_" d="M324.6,74.546V46.962c0-.346.115-.462.4-.462h1.154a.425.425,0,0,1,.462.462V56.08h.173a4.426,4.426,0,0,1,4.213-2.135h2.655a5.279,5.279,0,0,1,5.655,5.713v9.522a5.868,5.868,0,0,1-1.5,4.213,5.616,5.616,0,0,1-4.155,1.558H325C324.715,75.008,324.6,74.892,324.6,74.546Zm2.424-1.327h6.463a3.84,3.84,0,0,0,2.885-1.039,4.264,4.264,0,0,0,.981-3V59.831a4.209,4.209,0,0,0-.981-2.943,3.754,3.754,0,0,0-2.885-1.039h-2.655a4.27,4.27,0,0,0-3.058,1.039,3.79,3.79,0,0,0-1.1,2.943V72.873Q326.591,73.219,327.024,73.219Z" transform="translate(-224.015 -46.5)" fill="#fff"/>
      <path id="XMLID_62_" d="M373.538,80.76h-8.483A5.526,5.526,0,0,1,360.9,79.2a5.631,5.631,0,0,1-1.5-4.213V65.871a5.868,5.868,0,0,1,1.5-4.213,5.616,5.616,0,0,1,4.155-1.558h3.462a5.527,5.527,0,0,1,4.155,1.558,5.663,5.663,0,0,1,1.558,4.213v5.136c0,.346-.173.462-.462.462h-12a.306.306,0,0,0-.346.346v3.116a4.209,4.209,0,0,0,.981,2.943,3.7,3.7,0,0,0,2.828,1.039h8.31a.425.425,0,0,1,.462.462V80.3C373.942,80.644,373.827,80.76,373.538,80.76ZM361.766,69.853h10.1a.306.306,0,0,0,.346-.346V65.871a4.209,4.209,0,0,0-.981-2.943,3.7,3.7,0,0,0-2.828-1.039h-3.232a3.619,3.619,0,0,0-2.828,1.039,4.209,4.209,0,0,0-.981,2.943v3.636C361.362,69.737,361.477,69.853,361.766,69.853Z" transform="translate(-238.732 -52.252)" fill="#fff"/>
    </g>
    <g id="XMLID_3_" transform="translate(92.3 71.398)">
      <path id="XMLID_4_" d="M147.033,119.773h-.565c-.161,0-.161-.081-.081-.242l3.389-10.488a.214.214,0,0,1,.242-.242h.807q.121,0,.242.242l3.389,10.488c0,.161,0,.242-.081.242h-.565q-.121,0-.242-.242l-.887-2.743h-4.437l-.887,2.743C147.194,119.692,147.113,119.773,147.033,119.773Zm3.308-10-1.936,6.293h3.953l-2.017-6.293Z" transform="translate(-146.334 -107.832)" fill="#fff"/>
      <path id="XMLID_10_" d="M161.769,119.541h-1.13a2.311,2.311,0,0,1-1.694-.645,2.512,2.512,0,0,1-.645-1.775v-3.792a2.512,2.512,0,0,1,.645-1.775,2.311,2.311,0,0,1,1.694-.645h1.13a1.861,1.861,0,0,1,1.775.887h.081v-3.953c0-.161.081-.242.161-.242h.484c.161,0,.161.081.161.242v11.537c0,.161-.081.242-.161.242h-.484c-.081,0-.161-.081-.161-.242v-.645h-.081A1.982,1.982,0,0,1,161.769,119.541Zm1.856-2.42v-3.792a1.416,1.416,0,0,0-.484-1.21,2.053,2.053,0,0,0-1.291-.4h-1.13a1.982,1.982,0,0,0-1.21.4,1.482,1.482,0,0,0-.4,1.21v3.792a1.67,1.67,0,0,0,.4,1.21,1.388,1.388,0,0,0,1.21.4h1.13a2.053,2.053,0,0,0,1.291-.4A1.522,1.522,0,0,0,163.625,117.12Z" transform="translate(-148.646 -107.6)" fill="#fff"/>
      <path id="XMLID_14_" d="M168.073,111.6h.565q.121,0,.242.242l2.259,7.5h.081l2.259-7.5c.081-.161.081-.242.242-.242h.565c.161,0,.161.081.081.242l-2.582,8.229a.214.214,0,0,1-.242.242h-.726a.214.214,0,0,1-.242-.242l-2.582-8.229C167.911,111.681,167.992,111.6,168.073,111.6Z" transform="translate(-150.512 -108.373)" fill="#fff"/>
      <path id="XMLID_17_" d="M183.57,120.333h-3.55a2.658,2.658,0,0,1-1.775-.645,2.512,2.512,0,0,1-.645-1.775V114.12a2.512,2.512,0,0,1,.645-1.775,2.378,2.378,0,0,1,1.775-.645h1.452a2.658,2.658,0,0,1,1.775.645,2.512,2.512,0,0,1,.645,1.775V116.3a.214.214,0,0,1-.242.242h-5a.174.174,0,0,0-.161.161v1.291a1.426,1.426,0,0,0,1.614,1.614h3.469c.161,0,.161.081.161.161v.4A.174.174,0,0,1,183.57,120.333Zm-4.921-4.6h4.2a.174.174,0,0,0,.161-.161V114.04a1.426,1.426,0,0,0-1.614-1.614H180.02a1.982,1.982,0,0,0-1.21.4,1.482,1.482,0,0,0-.4,1.21v1.533C178.487,115.653,178.568,115.734,178.649,115.734Z" transform="translate(-152.375 -108.392)" fill="#fff"/>
      <path id="XMLID_20_" d="M188.845,120.313h-.484c-.081,0-.161-.081-.161-.242v-8.229c0-.161.081-.242.161-.242h.484c.161,0,.161.081.161.242v.726h.081a1.652,1.652,0,0,1,.645-.645,2.577,2.577,0,0,1,1.13-.242h.645c.161,0,.161.081.161.161v.4c0,.161-.081.161-.161.161H190.7a1.7,1.7,0,0,0-1.291.484,1.9,1.9,0,0,0-.484,1.372v5.809C189.007,120.233,189.007,120.313,188.845,120.313Z" transform="translate(-154.423 -108.373)" fill="#fff"/>
      <path id="XMLID_26_" d="M194.91,112h-1.049c-.161,0-.161-.081-.161-.161v-.4c0-.161.081-.161.161-.161h1.049a.173.173,0,0,0,.161-.161v-1.372c0-.161.081-.242.161-.242h.484c.161,0,.161.081.161.242v1.372a.174.174,0,0,0,.161.161h2.017c.161,0,.161.081.161.161v.4a.174.174,0,0,1-.161.161H196.04a.174.174,0,0,0-.161.161v5.325a1.426,1.426,0,0,0,1.614,1.614h.646c.161,0,.161.081.161.161v.4c0,.161-.081.161-.161.161h-.726a2.512,2.512,0,0,1-1.775-.645,2.033,2.033,0,0,1-.645-1.694v-5.406C195.072,112.082,195.072,112,194.91,112Z" transform="translate(-155.485 -107.967)" fill="#fff"/>
      <path id="XMLID_28_" d="M202.2,109.475v-1.614c0-.161.081-.161.161-.161h.484a.174.174,0,0,1,.161.161v1.614c0,.161-.081.242-.161.242h-.484C202.2,109.636,202.2,109.636,202.2,109.475Zm0,9.843v-8.229c0-.161.081-.242.161-.242h.484c.161,0,.161.081.161.242v8.229c0,.161-.081.242-.161.242h-.484C202.2,119.56,202.2,119.479,202.2,119.318Z" transform="translate(-157.127 -107.619)" fill="#fff"/>
      <path id="XMLID_31_" d="M209.108,120.313h-2.985c-.161,0-.161-.081-.161-.161v-.4a.173.173,0,0,1,.161-.161h2.824c1.049,0,1.533-.4,1.533-1.21v-.4a1.411,1.411,0,0,0-.968-1.452l-2.1-.807a2.874,2.874,0,0,1-1.21-.807,2.053,2.053,0,0,1-.4-1.291c0-1.291.726-2.017,2.178-2.017h2.743c.161,0,.161.081.161.161v.4a.174.174,0,0,1-.161.161h-2.662a1.369,1.369,0,0,0-1.049.323.876.876,0,0,0-.323.726v.4a.986.986,0,0,0,.242.726,2.33,2.33,0,0,0,.807.484l2.1.807a2.011,2.011,0,0,1,1.21.887,3.015,3.015,0,0,1,.323,1.614,1.9,1.9,0,0,1-.565,1.533A2.362,2.362,0,0,1,209.108,120.313Z" transform="translate(-157.823 -108.373)" fill="#fff"/>
      <path id="XMLID_33_" d="M221.17,120.333h-3.55a2.658,2.658,0,0,1-1.775-.645,2.511,2.511,0,0,1-.645-1.775V114.12a2.511,2.511,0,0,1,.645-1.775,2.377,2.377,0,0,1,1.775-.645h1.452a2.658,2.658,0,0,1,1.775.645,2.512,2.512,0,0,1,.645,1.775V116.3a.214.214,0,0,1-.242.242h-5a.173.173,0,0,0-.161.161v1.291a1.426,1.426,0,0,0,1.614,1.614h3.469c.161,0,.161.081.161.161v.4C221.412,120.252,221.332,120.333,221.17,120.333Zm-4.922-4.6h4.2a.174.174,0,0,0,.161-.161V114.04a1.426,1.426,0,0,0-1.614-1.614H217.62a1.982,1.982,0,0,0-1.21.4,1.482,1.482,0,0,0-.4,1.21v1.533C216.087,115.653,216.168,115.734,216.249,115.734Z" transform="translate(-159.639 -108.392)" fill="#fff"/>
      <path id="XMLID_36_" d="M226.545,120.313h-.484c-.081,0-.161-.081-.161-.242v-8.229c0-.161.081-.242.161-.242h.484c.161,0,.161.081.161.242v.645h.081a1.861,1.861,0,0,1,1.775-.887h.726a2.175,2.175,0,0,1,2.1,1.21,1.6,1.6,0,0,1,.887-.887,3.383,3.383,0,0,1,1.291-.323h.645a2.311,2.311,0,0,1,1.694.645,2.512,2.512,0,0,1,.645,1.775v6.051c0,.161-.081.242-.161.242H235.9c-.161,0-.161-.081-.161-.242V114.1a1.426,1.426,0,0,0-1.614-1.614h-.645a1.666,1.666,0,0,0-1.775,1.775v5.97c0,.161-.081.242-.161.242h-.484c-.161,0-.161-.081-.161-.242v-5.97a1.426,1.426,0,0,0-1.614-1.614h-.645a2.053,2.053,0,0,0-1.291.4,1.642,1.642,0,0,0-.484,1.21v6.051C226.707,120.233,226.626,120.313,226.545,120.313Z" transform="translate(-161.706 -108.373)" fill="#fff"/>
      <path id="XMLID_38_" d="M247.67,120.333h-3.55a2.658,2.658,0,0,1-1.775-.645,2.512,2.512,0,0,1-.645-1.775V114.12a2.512,2.512,0,0,1,.645-1.775,2.378,2.378,0,0,1,1.775-.645h1.452a2.658,2.658,0,0,1,1.775.645,2.512,2.512,0,0,1,.645,1.775V116.3a.214.214,0,0,1-.242.242h-5a.174.174,0,0,0-.161.161v1.291a1.426,1.426,0,0,0,1.614,1.614h3.469c.161,0,.161.081.161.161v.4C247.832,120.252,247.832,120.333,247.67,120.333Zm-4.921-4.6h4.2a.173.173,0,0,0,.161-.161V114.04a1.426,1.426,0,0,0-1.614-1.614H244.12a1.982,1.982,0,0,0-1.21.4,1.482,1.482,0,0,0-.4,1.21v1.533C242.587,115.653,242.668,115.734,242.749,115.734Z" transform="translate(-164.759 -108.392)" fill="#fff"/>
      <path id="XMLID_41_" d="M252.945,120.313h-.484c-.081,0-.161-.081-.161-.242v-8.229c0-.161.081-.242.161-.242h.484c.161,0,.161.081.161.242v.645h.081a1.861,1.861,0,0,1,1.775-.887h1.129a2.311,2.311,0,0,1,1.694.645,2.511,2.511,0,0,1,.646,1.775v6.051c0,.161-.081.242-.161.242h-.484c-.161,0-.161-.081-.161-.242V114.1a1.426,1.426,0,0,0-1.614-1.614h-1.13a2.053,2.053,0,0,0-1.291.4,1.522,1.522,0,0,0-.484,1.21v6.051C253.187,120.233,253.107,120.313,252.945,120.313Z" transform="translate(-166.807 -108.373)" fill="#fff"/>
      <path id="XMLID_43_" d="M263.11,112h-1.049c-.161,0-.161-.081-.161-.161v-.4c0-.161.081-.161.161-.161h1.049a.174.174,0,0,0,.161-.161v-1.372c0-.161.081-.242.161-.242h.484c.161,0,.161.081.161.242v1.372a.173.173,0,0,0,.161.161h2.017c.161,0,.161.081.161.161v.4a.173.173,0,0,1-.161.161H264.24a.173.173,0,0,0-.161.161v5.325a1.981,1.981,0,0,0,.4,1.21,1.482,1.482,0,0,0,1.21.4h.645c.161,0,.161.081.161.161v.4c0,.161-.081.161-.161.161h-.726a2.512,2.512,0,0,1-1.775-.645,2.033,2.033,0,0,1-.645-1.694v-5.406C263.272,112.082,263.272,112,263.11,112Z" transform="translate(-168.661 -107.967)" fill="#fff"/>
    </g>
  </g>
</svg>
