<svg xmlns="http://www.w3.org/2000/svg" width="55.116" height="138.837" viewBox="0 0 55.116 138.837">
  <path id="Path_188" data-name="Path 188" d="M318.567,106.591a.391.391,0,0,0-.368-.075c-.142.045-.271.084-.394.121l-.06.018a8.664,8.664,0,0,0-.822.276,20.211,20.211,0,0,0-9.831,8.756,17.965,17.965,0,0,0-1.495,3.207,50.041,50.041,0,0,0,.891-9.12c.005-.171.005-.344.005-.517a5.618,5.618,0,0,1,.1-1.321,7.157,7.157,0,0,1,.593-1.424c.066-.131.131-.263.185-.378a.27.27,0,0,1,.1-.065,5.993,5.993,0,0,0,3.159-1.562,10.41,10.41,0,0,0,2.359-3.195A32.871,32.871,0,0,0,316.2,86.687a13.528,13.528,0,0,0-.124-1.536c-.029-.24-.058-.486-.083-.741a.408.408,0,0,0-.218-.324.392.392,0,0,0-.384.02c-.073.047-.135.085-.192.119-.11.067-.193.12-.272.178a21.06,21.06,0,0,0-4.821,5.023,22.331,22.331,0,0,0-3.859,10.892q-.052-.671-.1-1.343l-.012-.162c-.136-1.755-.277-3.569-.392-5.353a10.587,10.587,0,0,0-.194-1.317,4.939,4.939,0,0,1-.068-2.4c.054-.183.1-.367.145-.551a5.035,5.035,0,0,1,1.489-1.922l.031-.029a10.336,10.336,0,0,0,2.782-4.7,26.722,26.722,0,0,0,.79-8.4v-.061a27.2,27.2,0,0,0-1.067-7.665c-.087-.277-.19-.55-.3-.837-.057-.149-.115-.3-.174-.465a.4.4,0,0,0-.3-.26l-.067-.006a.389.389,0,0,0-.305.15l-.652.818a20.79,20.79,0,0,0-4.565,13.689,27.354,27.354,0,0,0,.2,2.8,81.384,81.384,0,0,0-2.785-8.218.61.61,0,0,1-.038-.19l-.007-.362c-.011-.522-.022-1.062,0-1.593a.827.827,0,0,1,.174-.4c.164-.223.345-.44.533-.667a8.968,8.968,0,0,0,.914-1.234,10.514,10.514,0,0,0,1.247-5.418,33.825,33.825,0,0,0-1.243-8.731,22.788,22.788,0,0,0-2.5-6.3c-.089-.143-.19-.279-.3-.422-.048-.063-.1-.131-.15-.2a.389.389,0,0,0-.345-.164.4.4,0,0,0-.318.209,21.211,21.211,0,0,0-2.523,10.067,27.949,27.949,0,0,0,1.018,7.82,78.32,78.32,0,0,0-4.937-8.078l-.041-.058c-.041-.056-.058-.083-.055-.064-.113-.831-.191-1.5-.245-2.075a.726.726,0,0,1,.1-.2c.118-.208.248-.412.386-.627a7.179,7.179,0,0,0,.746-1.385,10.585,10.585,0,0,0,.379-5.257,23.808,23.808,0,0,0-5.848-12.308,13.963,13.963,0,0,0-1.105-1.1l-.109-.1c-.154-.144-.313-.291-.473-.447a.388.388,0,0,0-.389-.094.408.408,0,0,0-.268.3l-.072.324c-.049.215-.087.384-.115.555a28.02,28.02,0,0,0,.1,8.887,21.762,21.762,0,0,0,3.05,8.461,63.94,63.94,0,0,0-6.908-7.248.244.244,0,0,1-.027-.068,6.954,6.954,0,0,0-1.193-4.693,12.157,12.157,0,0,0-5.352-4.55c-1.35-.6-2.748-1.137-4.118-1.66-.656-.251-1.312-.5-1.987-.769s-.969-.328-1.127-.177c-.2.195-.154.361-.066.663l.029.1a19.715,19.715,0,0,0,3.359,6.945c2.63,3.309,5.706,4.99,9.4,5.139a.543.543,0,0,1,.274.078c.52.4.9.722,1.241,1.04q1.6,1.511,3.154,3.211a9.182,9.182,0,0,0-5.518-1.315c-1.155.06-2.3.234-3.41.4l-.042.007q-.491.074-.979.146c-.712.1-1.431.229-2.065.344-.257.047-.871.191-1.012.5a.356.356,0,0,0,.011.324,2,2,0,0,0,.161.255,13.519,13.519,0,0,0,6.385,4.927,10.163,10.163,0,0,0,8.249-.275,2.726,2.726,0,0,1,1.36-.324,3.5,3.5,0,0,1,.789.087.853.853,0,0,1,.387.164,73.974,73.974,0,0,1,4.375,6.667,9.645,9.645,0,0,0-4.715-2.447,28.83,28.83,0,0,0-5.417-.629l-.6-.031c-.558-.029-1.116-.066-1.69-.1l-.963-.061a.388.388,0,0,0-.316.165.415.415,0,0,0-.052.385,3.5,3.5,0,0,0,.145.363,16.754,16.754,0,0,0,6.733,6.835,10.1,10.1,0,0,0,7.3,1.106,3.878,3.878,0,0,1,.919-.1,2.266,2.266,0,0,1,1.855.609,83.857,83.857,0,0,1,3.464,8.57,11.277,11.277,0,0,0-4.379-3.61c-1.848-.9-3.772-1.72-5.665-2.528-.813-.346-1.63-.694-2.443-1.05a.388.388,0,0,0-.377.034.41.41,0,0,0-.176.339c0,.262,2.7,7.98,6.62,11.021a10.322,10.322,0,0,0,6.053,2.577,2.594,2.594,0,0,1,2.093.8.766.766,0,0,0,.335.237c.2.067.253.192.351.618a84.67,84.67,0,0,1,1.751,10.708q-.164-.554-.381-1.121a15.891,15.891,0,0,0-4.647-6.312c-1.182-1.043-2.42-2.052-3.617-3.029l-.057-.046c-.545-.445-1.089-.888-1.631-1.337-.112-.093-.221-.188-.348-.3l-.338-.3a.394.394,0,0,0-.433-.053.41.41,0,0,0-.216.392c.017.246.03.479.043.7l.006.1c.027.46.052.894.1,1.323a22.32,22.32,0,0,0,3.683,10.653,13.024,13.024,0,0,0,5.94,5.183,3.7,3.7,0,0,1,1.732,1.37,2.957,2.957,0,0,1,.59,2.041,86.969,86.969,0,0,1-.662,9.508,13.42,13.42,0,0,0-.583-2.688,20.872,20.872,0,0,0-2.936-5.71c-1.173-1.663-2.394-3.333-3.575-4.948l-.079-.108c-.468-.64-.936-1.28-1.392-1.907a.525.525,0,0,0-.28-.2.386.386,0,0,0-.329-.009.4.4,0,0,0-.221.249l-.014.044a1,1,0,0,0-.043.163,23.736,23.736,0,0,0,1.527,13.7,15.124,15.124,0,0,0,4.233,6.078,6.8,6.8,0,0,1,2.159,3.03.83.83,0,0,1,.076.409,74.082,74.082,0,0,1-3.506,11.053,14.412,14.412,0,0,0-.077-5.8,52,52,0,0,0-2.536-7.979l-.274-.708c-.429-1.109-.86-2.226-1.306-3.384a.407.407,0,0,0-.375-.258.387.387,0,0,0-.344.221l-.144.278c-.063.122-.122.236-.173.353a24.071,24.071,0,0,0-1.845,13.028A17.167,17.167,0,0,0,294.6,137.9a7.3,7.3,0,0,1,1.353,3.408,1.252,1.252,0,0,1-.123.784,61.544,61.544,0,0,1-5.2,7.9l.022-.04a14.382,14.382,0,0,0,1.273-7.766c-.121-2.05-.349-4.1-.568-6.076l-.013-.114c-.088-.793-.176-1.585-.257-2.379-.046-.45-.1-.9-.152-1.357l-.07-.618a.4.4,0,0,0-.213-.315c-.217-.117-.567.063-.946.525a21.664,21.664,0,0,0-4.8,10.65,19.4,19.4,0,0,0,1,10.569.983.983,0,0,1,.033.3l-.069,1.767a.6.6,0,0,1-.129.324,46.113,46.113,0,0,1-8.529,6.684,11.741,11.741,0,0,0,3.175-5.356,53.056,53.056,0,0,0,1.509-7.563l.033-.223c.132-.879.27-1.757.411-2.653l.159-1.014a.411.411,0,0,0-.145-.384.391.391,0,0,0-.4-.056l-.139.059c-.148.062-.277.118-.4.182A17.649,17.649,0,0,0,272.34,161.7a8.215,8.215,0,0,1-.282,2.97.414.414,0,0,1-.141.2,45.01,45.01,0,0,1-8.014,2.671.4.4,0,0,0-.287.267.415.415,0,0,0,.073.393,6.533,6.533,0,0,1,.742,1.12.4.4,0,0,0,.435.2,44.517,44.517,0,0,0,6.221-1.945.731.731,0,0,1,.4-.078,12.682,12.682,0,0,1,1.423.286,1.788,1.788,0,0,1,.2.073,8.393,8.393,0,0,0,5.932,4.513,14.487,14.487,0,0,0,1.909.337,20.872,20.872,0,0,0,2.235.111c1.12,0,1.918-.071,1.928-.072a20.152,20.152,0,0,0,6.479-1.76,6.053,6.053,0,0,0,2.323-1.748.416.416,0,0,0-.049-.556,20.154,20.154,0,0,0-5.937-3.85,14.763,14.763,0,0,0-8.675-1.062c-.413.083-.816.187-1.208.306a49.543,49.543,0,0,0,7.4-5.592.391.391,0,0,1,.176-.089c.382-.065.89-.146,1.41-.185a.382.382,0,0,1,.116.026,6.92,6.92,0,0,0,5.546,2.412c.118,0,.237,0,.356-.007a17.183,17.183,0,0,0,7.55-2.127,18.767,18.767,0,0,0,5.213-3.784,13.006,13.006,0,0,0,.907-1.172l.026-.037c.118-.165.237-.331.36-.495a.413.413,0,0,0-.11-.6,12.869,12.869,0,0,0-1.263-.607,16.81,16.81,0,0,0-11.743-.471,12.354,12.354,0,0,0-3.559,1.887,63.883,63.883,0,0,0,5.839-8.28,1.306,1.306,0,0,1,.086-.132c.155-.1.314-.2.472-.294a9.28,9.28,0,0,0,.854-.56c.233-.179.3-.184.534-.028a3.534,3.534,0,0,0,1.058.43,8.624,8.624,0,0,0,6.167-.8,16.51,16.51,0,0,0,4.93-4.021,20.388,20.388,0,0,0,4.1-6.272,12.868,12.868,0,0,0,.415-1.354c.052-.2.1-.394.161-.588a.408.408,0,0,0-.246-.5l-.165-.013c-.814,0-8.074.123-12.321,4.368a22.443,22.443,0,0,0-2.508,2.98,81.651,81.651,0,0,0,4.253-11.537l.017-.059a.789.789,0,0,1,.048-.143l1.111-1.571c.041-.063.046-.063.111-.063.029,0,.061,0,.1,0l.237.015a7.752,7.752,0,0,0,1.713-.019,7.655,7.655,0,0,0,4.363-2.509,27.882,27.882,0,0,0,6.666-12.765,9.849,9.849,0,0,0,.223-1.73c.019-.273.04-.554.07-.844A.418.418,0,0,0,318.567,106.591Z" transform="translate(-263.595 -33.983)" fill="#ebebeb"/>
</svg>
