<svg xmlns="http://www.w3.org/2000/svg" xmlns:xlink="http://www.w3.org/1999/xlink" width="1519" height="236.155" viewBox="0 0 1519 236.155">
  <defs>
    <linearGradient id="linear-gradient" x1="22.854" y1="0.18" x2="22.905" y2="1.142" gradientUnits="objectBoundingBox">
      <stop offset="0"/>
      <stop offset="0.116" stop-color="#181818"/>
      <stop offset="0.36" stop-color="#545454"/>
      <stop offset="0.54" stop-color="#858585"/>
      <stop offset="0.603" stop-color="#626262"/>
      <stop offset="0.681" stop-color="#3f3f3f"/>
      <stop offset="0.759" stop-color="#232323"/>
      <stop offset="0.838" stop-color="#101010"/>
      <stop offset="0.918" stop-color="#040404"/>
      <stop offset="1"/>
    </linearGradient>
    <linearGradient id="linear-gradient-2" x1="0.472" y1="0.18" x2="0.522" y2="1.142" xlink:href="#linear-gradient"/>
    <linearGradient id="linear-gradient-3" x1="0.494" y1="0.263" x2="0.514" y2="0.583" xlink:href="#linear-gradient"/>
    <linearGradient id="linear-gradient-4" x1="15.255" y1="0.263" x2="15.275" y2="0.583" xlink:href="#linear-gradient"/>
    <linearGradient id="linear-gradient-5" x1="-0.143" y1="0.5" x2="1.005" y2="0.5" gradientUnits="objectBoundingBox">
      <stop offset="0" stop-color="#e8e8e8"/>
      <stop offset="0.073" stop-color="#cacaca"/>
      <stop offset="0.234" stop-color="#8d8d8d"/>
      <stop offset="0.389" stop-color="#5b5b5b"/>
      <stop offset="0.534" stop-color="#333"/>
      <stop offset="0.666" stop-color="#171717"/>
      <stop offset="0.781" stop-color="#060606"/>
      <stop offset="0.867"/>
    </linearGradient>
    <linearGradient id="linear-gradient-6" x1="0.042" y1="0.14" x2="0.606" y2="0.938" gradientUnits="objectBoundingBox">
      <stop offset="0" stop-color="#fff" stop-opacity="0.122"/>
      <stop offset="0.104" stop-color="#fff6de" stop-opacity="0.212"/>
      <stop offset="0.352" stop-color="#fee396" stop-opacity="0.427"/>
      <stop offset="0.574" stop-color="#fed45c" stop-opacity="0.624"/>
      <stop offset="0.763" stop-color="#fdc932" stop-opacity="0.792"/>
      <stop offset="0.911" stop-color="#fdc218" stop-opacity="0.922"/>
      <stop offset="1" stop-color="#fdc00f"/>
    </linearGradient>
    <linearGradient id="linear-gradient-7" x1="0" y1="0.5" x2="1" y2="0.5" xlink:href="#linear-gradient-6"/>
    <linearGradient id="linear-gradient-8" x1="0.466" y1="0.149" x2="0.517" y2="0.704" xlink:href="#linear-gradient"/>
    <linearGradient id="linear-gradient-9" x1="5.511" y1="0.149" x2="5.562" y2="0.704" xlink:href="#linear-gradient"/>
    <linearGradient id="linear-gradient-10" x1="0.498" y1="0.065" x2="0.506" y2="0.972" gradientUnits="objectBoundingBox">
      <stop offset="0" stop-color="#fbbf81"/>
      <stop offset="0.244" stop-color="#e9a76d"/>
      <stop offset="0.739" stop-color="#bd6d3c"/>
    </linearGradient>
    <linearGradient id="linear-gradient-11" x1="8.626" y1="0.065" x2="8.635" y2="0.972" xlink:href="#linear-gradient-10"/>
  </defs>
  <g id="Group_134" data-name="Group 134" transform="translate(0 -154.845)">
    <g id="Group_84" data-name="Group 84" transform="translate(-4269 955.845) rotate(-90)">
      <rect id="Rectangle_25" data-name="Rectangle 25" width="236" height="1518.689" transform="translate(565 4269)" fill="#202020"/>
      <path id="Line_10" data-name="Line 10" d="M1.5,1518.5h-3V0h3Z" transform="translate(603.5 4269.5)" fill="#f3f3f3"/>
      <path id="Line_11" data-name="Line 11" d="M1.5,1518.5h-3V0h3Z" transform="translate(765.5 4269.5)" fill="#f3f3f3"/>
      <path id="Line_12" data-name="Line 12" d="M1.5,1511.5h-3v-22.56h3Zm0-45.12h-3v-22.56h3Zm0-45.119h-3V1398.7h3Zm0-45.119h-3v-22.56h3Zm0-45.12h-3v-22.56h3Zm0-45.119h-3v-22.56h3Zm0-45.119h-3v-22.56h3Zm0-45.119h-3V1173.1h3Zm0-45.119h-3v-22.56h3Zm0-45.119h-3v-22.56h3Zm0-45.12h-3v-22.56h3Zm0-45.119h-3v-22.56h3Zm0-45.12h-3v-22.56h3Zm0-45.119h-3v-22.56h3Zm0-45.119h-3v-22.56h3Zm0-45.119h-3v-22.56h3Zm0-45.119h-3V767.03h3Zm0-45.119h-3V721.91h3Zm0-45.119h-3v-22.56h3Zm0-45.119h-3v-22.56h3Zm0-45.119h-3v-22.56h3Zm0-45.119h-3v-22.56h3Zm0-45.119h-3v-22.56h3Zm0-45.119h-3v-22.56h3Zm0-45.119h-3v-22.56h3Zm0-45.119h-3v-22.56h3Zm0-45.119h-3v-22.56h3Zm0-45.119h-3v-22.56h3Zm0-45.119h-3V225.6h3Zm0-45.119h-3v-22.56h3Zm0-45.119h-3v-22.56h3Zm0-45.119h-3V90.239h3Zm0-45.119h-3V45.119h3Zm0-45.119h-3V0h3Z" transform="translate(683 4269.5)" fill="#f3f3f3"/>
    </g>
    <rect id="Rectangle_84" data-name="Rectangle 84" width="431" height="236" transform="translate(100 155)" fill="#fff"/>
    <g id="Delivery_Boy" data-name="Delivery Boy" transform="translate(839.252 211.389) rotate(90)">
      <g id="Group_72" data-name="Group 72" transform="translate(44.304 105.721)">
        <path id="Path_46" data-name="Path 46" d="M183.03,689.712H150.248c-1.3-5.915,0-11.83,0-18.647,7.82-10.226,26.266-9.925,32.783,0C182.73,677.782,184.835,683.9,183.03,689.712Z" transform="translate(-149.669 -663.508)" fill="#fdc210"/>
        <path id="Path_47" data-name="Path 47" d="M160.959,745.874H157.45a41.031,41.031,0,0,0,1.353-12.081,4.327,4.327,0,0,1,1.821-2.356C162,730.669,161.661,738.556,160.959,745.874Z" transform="translate(-156.54 -723.446)" fill="#dd8927"/>
        <path id="Path_48" data-name="Path 48" d="M397.655,743.474h3.509a41.031,41.031,0,0,1-1.353-12.081,4.327,4.327,0,0,0-1.821-2.356C396.619,728.269,396.953,736.156,397.655,743.474Z" transform="translate(-368.111 -721.327)" fill="#dd8927"/>
      </g>
      <path id="Path_49" data-name="Path 49" d="M481.838,247.616a16.456,16.456,0,0,1-9.256-1.537s-.259-.222-1.361,1.66l1.053.378.577-.853a17.185,17.185,0,0,0,8.99,1.278S482.13,247.942,481.838,247.616Z" transform="translate(-389.306 -189.174)" fill="url(#linear-gradient)"/>
      <path id="Path_50" data-name="Path 50" d="M30.479,248.446a16.456,16.456,0,0,0,9.256-1.537s.258-.222,1.361,1.66l-1.053.378-.577-.853a17.185,17.185,0,0,1-8.99,1.278S30.186,248.771,30.479,248.446Z" transform="translate(0 -189.907)" fill="url(#linear-gradient-2)"/>
      <path id="Path_51" data-name="Path 51" d="M78.814,255.54v1.253s-13.434,1.754-17.393,3.759l-.3-1.5S71.5,256.042,78.814,255.54Z" transform="translate(-27.172 -197.536)" fill="url(#linear-gradient-3)"/>
      <path id="Path_52" data-name="Path 52" d="M383.64,255.54v1.253s13.434,1.754,17.393,3.759l.3-1.5S390.958,256.042,383.64,255.54Z" transform="translate(-311.97 -197.536)" fill="url(#linear-gradient-4)"/>
      <g id="Group_73" data-name="Group 73" transform="translate(58.347 31.84)">
        <path id="Path_53" data-name="Path 53" d="M273.707,41.815h-1.62a2.347,2.347,0,0,1-2.347-2.347v-5.28a2.347,2.347,0,0,1,2.347-2.347h1.62a2.347,2.347,0,0,1,2.347,2.347v5.28A2.348,2.348,0,0,1,273.707,41.815Z" transform="translate(-269.739 -31.84)" fill="url(#linear-gradient-5)"/>
        <rect id="Rectangle_76" data-name="Rectangle 76" width="3.309" height="0.426" transform="translate(0 6.716)" fill="#6d6d6d" opacity="0.38"/>
        <rect id="Rectangle_77" data-name="Rectangle 77" width="3.309" height="0.426" transform="translate(3.008 5.881)" fill="#6d6d6d" opacity="0.38"/>
        <rect id="Rectangle_78" data-name="Rectangle 78" width="3.309" height="0.426" transform="translate(0 5.045)" fill="#6d6d6d" opacity="0.38"/>
        <rect id="Rectangle_79" data-name="Rectangle 79" width="3.309" height="0.426" transform="translate(3.008 4.209)" fill="#6d6d6d" opacity="0.38"/>
        <rect id="Rectangle_80" data-name="Rectangle 80" width="3.309" height="0.426" transform="translate(0 3.374)" fill="#6d6d6d" opacity="0.38"/>
        <rect id="Rectangle_81" data-name="Rectangle 81" width="3.309" height="0.426" transform="translate(3.008 2.538)" fill="#6d6d6d" opacity="0.38"/>
        <path id="Path_54" data-name="Path 54" d="M273.039,46.826H269.73l.09-.426h3.219Z" transform="translate(-269.73 -44.697)" fill="#6d6d6d" opacity="0.38"/>
        <path id="Path_55" data-name="Path 55" d="M298.517,39.686H295.45V39.26h2.794Z" transform="translate(-292.442 -38.392)" fill="#6d6d6d" opacity="0.38"/>
      </g>
      <path id="Path_56" data-name="Path 56" d="M269.222,114.847h-6.55a.8.8,0,0,1-.8-.8V97.2a.8.8,0,0,1,.8-.8h6.55a.8.8,0,0,1,.8.8v16.843A.8.8,0,0,1,269.222,114.847Z" transform="translate(-204.442 -57.009)" fill="#ffd346"/>
      <path id="Path_57" data-name="Path 57" d="M265.947,114.847h0a4.078,4.078,0,0,1-4.077-4.077V100.477a4.078,4.078,0,0,1,4.077-4.077h0a4.078,4.078,0,0,1,4.077,4.077V110.77A4.078,4.078,0,0,1,265.947,114.847Z" transform="translate(-204.442 -57.009)" fill="#f9c432"/>
      <path id="Path_58" data-name="Path 58" d="M275.142,127.4h-4.528a.9.9,0,0,1-.895-.895V118a.9.9,0,0,1,.895-.895h4.528a.9.9,0,0,1,.895.895v8.5A.894.894,0,0,1,275.142,127.4Z" transform="translate(-211.374 -75.297)" fill="#faa719"/>
      <path id="Path_59" data-name="Path 59" d="M206.59,349.918V279.54h20.819v70.378H206.59" transform="translate(-155.628 -218.729)" fill="#696e72"/>
      <rect id="Rectangle_82" data-name="Rectangle 82" width="15.74" height="59.63" transform="translate(53.636 63.641)"/>
      <path id="Path_60" data-name="Path 60" d="M171.842,237.6c-12.13.05-16.542,2.117-16.542,2.117,3.007-6.529,7.787-11.022,16.475-11.022,8.727,0,14.57,4.812,16.609,11.1C188.384,239.784,183.973,237.545,171.842,237.6Z" transform="translate(-110.337 -173.826)" fill="#db7e14"/>
      <path id="Path_61" data-name="Path 61" d="M174.244,231.126c-11.9.049-16.224,2.076-16.224,2.076,2.95-6.4,7.638-10.812,16.158-10.812,8.559,0,14.29,4.719,16.289,10.882C190.468,233.273,186.141,231.077,174.244,231.126Z" transform="translate(-112.739 -168.263)" fill="#fdc00f"/>
      <path id="Path_62" data-name="Path 62" d="M298.72,231.118v-8.735s12.039-.434,15.991,10.882C314.711,233.266,310.334,231.047,298.72,231.118Z" transform="translate(-236.982 -168.255)" fill="url(#linear-gradient-6)"/>
      <path id="Path_63" data-name="Path 63" d="M269.49,191.795l-1.11-3.183a6.708,6.708,0,0,1,6.584,0l-.786,3.183Z" transform="translate(-210.191 -137.669)" fill="#e59a25"/>
      <path id="Path_64" data-name="Path 64" d="M268.474,188.115l-1.244-3.568s3.683-2.294,6.781.173l-.85,3.4Z" transform="translate(-209.175 -133.99)" fill="url(#linear-gradient-7)"/>
      <path id="Path_65" data-name="Path 65" d="M44.836,262.067a34.62,34.62,0,0,0-11.88,2.638c-.375,0-1.725-.6-.95-2.807a38.568,38.568,0,0,1,12.228-2.807C45.061,259.214,45.412,261.545,44.836,262.067Z" transform="translate(-1.255 -200.67)" fill="url(#linear-gradient-8)"/>
      <path id="Path_66" data-name="Path 66" d="M451.064,262.277a34.622,34.622,0,0,1,11.88,2.637c.375,0,1.725-.6.95-2.807a38.568,38.568,0,0,0-12.228-2.807C450.838,259.425,450.487,261.756,451.064,262.277Z" transform="translate(-371.257 -200.856)" fill="url(#linear-gradient-9)"/>
      <path id="Path_67" data-name="Path 67" d="M54.717,273.849v-4.878a5.186,5.186,0,0,1-.9-3.408,10.226,10.226,0,0,1,6.282-1.637s.434,2.773,1.1,3.208c0,0,1.905.676,0,1.742,0,0-3.475.731-2.908,2.9v2.071Z" transform="translate(-20.7 -204.917)" fill="url(#linear-gradient-10)"/>
      <path id="Path_68" data-name="Path 68" d="M480.13,273.849v-4.878a5.186,5.186,0,0,0,.9-3.408,10.227,10.227,0,0,0-6.282-1.637s-.434,2.773-1.1,3.208c0,0-1.905.676,0,1.742,0,0,3.475.731,2.908,2.9v2.071Z" transform="translate(-390.701 -204.917)" fill="url(#linear-gradient-11)"/>
      <path id="Path_69" data-name="Path 69" d="M153.321,561.523s-1.905.9,2.908,13.434c0,0,3.263,11.451,12.732,11.428,6.958-.016,8.666-1.411,10.721-4.119a22.628,22.628,0,0,0,3.794-7.8c1.063-3.947,2.529-9.436,2.529-9.71,0-.429,1.7-4.54-3.309-4.94S153.638,559.126,153.321,561.523Z" transform="translate(-108.261 -465.987)" fill="#1f3668"/>
      <g id="Group_74" data-name="Group 74" transform="translate(33.463 65.958)">
        <path id="Path_70" data-name="Path 70" d="M57.3,323.54s-.947,15.547,15.333,28.319c0,0,1.857-.684,2.95,15.737,0,0,9.943,9.579,19.776,0,0,0,1.2-13.228,2.512-15.281,0,0,16.061-10.681,15.951-28.775l-5.062.646s.692,17.143-14.021,19.5l-19.084.076S63.129,341.976,62.364,324Z" transform="translate(-57.255 -323.54)" fill="#ec1f26"/>
        <path id="Path_71" data-name="Path 71" d="M57.1,323.54s-2.524,14.152,15.257,28.319c0,0,1.491-1.269,2.757,13.1.266,3.011-.637,2.459,3.381,5.146,3.643,2.436,10.675,3.413,15.431-1.484a6.291,6.291,0,0,0,.833-.69,3.921,3.921,0,0,1,.353-.476l.018-.019c0-.343-.025-.256-.316-.12-2.977,1.382-15.83,6.524-18.659-6.212,0,0-.4-8.5-1.157-11.862a2.134,2.134,0,0,0-1.23-1.515c-1.964-.823-7.136-3.539-11.066-10.513,0,0-5.676-10.494-4.57-13.673H57.1Z" transform="translate(-56.975 -323.54)" fill="#cd2228"/>
        <path id="Path_72" data-name="Path 72" d="M389.1,381.106a5.028,5.028,0,0,1,0-5.047c1.469-3.008,8.888-7.286,11.7-13.568s4.144-9.625,4.411-10.894.863-.454.863-.454-.6,12.627-12.86,23.016C393.211,374.16,389.283,377.154,389.1,381.106Z" transform="translate(-349.678 -347.688)" fill="#cd2228"/>
      </g>
      <g id="Group_76" data-name="Group 76" transform="translate(55.299 97.465)" opacity="0.18">
        <g id="Group_75" data-name="Group 75">
          <path id="Path_73" data-name="Path 73" d="M245.4,598.36l-.657-1.4h-.131l.215,1.411-.525.008-.633-3.745h.987a.869.869,0,0,1,.506.153,1.082,1.082,0,0,1,.35.421,1.843,1.843,0,0,1,.167.6,1.565,1.565,0,0,1-.053.663.683.683,0,0,1-.325.418l.691,1.468Zm-.888-2.046.347,0a.22.22,0,0,0,.214-.124.606.606,0,0,0,.032-.346.687.687,0,0,0-.123-.335.307.307,0,0,0-.254-.122h-.357Z" transform="translate(-243.67 -594.43)" fill="#fff"/>
          <path id="Path_74" data-name="Path 74" d="M265.586,602.482l-1.237.013a.928.928,0,0,0,.144.419.3.3,0,0,0,.241.143c.135,0,.22-.1.259-.288l.577-.007a1.748,1.748,0,0,1-.129.523.961.961,0,0,1-.26.367.569.569,0,0,1-.368.138.687.687,0,0,1-.466-.178,1.393,1.393,0,0,1-.364-.524,2.732,2.732,0,0,1-.2-.8,2.434,2.434,0,0,1,.029-.806,1.048,1.048,0,0,1,.278-.531.679.679,0,0,1,.477-.187.769.769,0,0,1,.5.178,1.248,1.248,0,0,1,.359.509,2.353,2.353,0,0,1,.158.772C265.586,602.3,265.587,602.39,265.586,602.482Zm-.586-.495a.65.65,0,0,0-.125-.368.319.319,0,0,0-.257-.136.263.263,0,0,0-.227.133.692.692,0,0,0-.085.375Z" transform="translate(-261.413 -599.843)" fill="#fff"/>
          <path id="Path_75" data-name="Path 75" d="M280.917,594.542a1.179,1.179,0,0,1,.274-.526.57.57,0,0,1,.415-.185.544.544,0,0,1,.34.119.8.8,0,0,1,.242.323l-.007-1.353h.592l-.046,3.859-.525.008,0-.418a.825.825,0,0,1-.209.338.458.458,0,0,1-.316.131.521.521,0,0,1-.389-.18,1.366,1.366,0,0,1-.3-.526,2.861,2.861,0,0,1-.139-.794A2.558,2.558,0,0,1,280.917,594.542Zm1.157.26a.336.336,0,0,0-.287-.192.327.327,0,0,0-.28.193,1,1,0,0,0-.1.528,1.086,1.086,0,0,0,.129.531.327.327,0,0,0,.277.193.322.322,0,0,0,.27-.2,1.062,1.062,0,0,0,.11-.529A1.018,1.018,0,0,0,282.074,594.8Z" transform="translate(-276.497 -592.92)" fill="#fff"/>
          <path id="Path_76" data-name="Path 76" d="M300.2,595.324a1.655,1.655,0,0,1,.447-.664.938.938,0,0,1,.618-.24.879.879,0,0,1,.663.284,1.494,1.494,0,0,1,.35.8l-.364,0a1.02,1.02,0,0,0-.242-.5.579.579,0,0,0-.432-.175.679.679,0,0,0-.454.178,1.208,1.208,0,0,0-.325.5,2.739,2.739,0,0,0-.054,1.518,1.132,1.132,0,0,0,.267.5.536.536,0,0,0,.4.171.6.6,0,0,0,.419-.179,1.275,1.275,0,0,0,.3-.5l.346,0a1.988,1.988,0,0,1-.457.8.892.892,0,0,1-.633.291.716.716,0,0,1-.532-.228,1.55,1.55,0,0,1-.37-.653,2.881,2.881,0,0,1-.124-.951A2.809,2.809,0,0,1,300.2,595.324Z" transform="translate(-293.43 -594.245)" fill="#fff"/>
          <path id="Path_77" data-name="Path 77" d="M323.459,601.32l-.439,2.807-.28,0,.061-.415a1,1,0,0,1-.273.339.546.546,0,0,1-.331.125.456.456,0,0,1-.337-.131.777.777,0,0,1-.2-.406,2.013,2.013,0,0,1-.022-.663l.173-1.655h.3l-.181,1.591a1.244,1.244,0,0,0,.055.64.329.329,0,0,0,.322.219.483.483,0,0,0,.391-.236,1.563,1.563,0,0,0,.23-.674l.226-1.544Z" transform="translate(-312.502 -600.337)" fill="#fff"/>
          <path id="Path_78" data-name="Path 78" d="M338.71,594.011a.734.734,0,0,1,.444-.159.522.522,0,0,1,.409.177.9.9,0,0,1,.2.5,2.209,2.209,0,0,1-.061.749,2.918,2.918,0,0,1-.281.752,1.761,1.761,0,0,1-.4.517.716.716,0,0,1-.446.189.433.433,0,0,1-.352-.152.784.784,0,0,1-.174-.4l-.094.516-.28,0,.651-3.784h.315l-.273,1.5A1.229,1.229,0,0,1,338.71,594.011Zm.73.718a.619.619,0,0,0-.146-.354.374.374,0,0,0-.285-.121.549.549,0,0,0-.331.126,1.108,1.108,0,0,0-.292.364,1.912,1.912,0,0,0-.184.55,1.671,1.671,0,0,0-.02.553.692.692,0,0,0,.145.359.329.329,0,0,0,.263.12.519.519,0,0,0,.317-.129,1.2,1.2,0,0,0,.29-.364,2.083,2.083,0,0,0,.2-.558A1.61,1.61,0,0,0,339.44,594.729Z" transform="translate(-326.676 -592.92)" fill="#fff"/>
          <path id="Path_79" data-name="Path 79" d="M358.431,602.4l-1.4.014a1.07,1.07,0,0,0,.013.639.326.326,0,0,0,.322.225.528.528,0,0,0,.345-.143,1.186,1.186,0,0,0,.28-.373l.31,0a2.05,2.05,0,0,1-.464.652.861.861,0,0,1-.574.257.46.46,0,0,1-.382-.171.883.883,0,0,1-.174-.5,2.325,2.325,0,0,1,.073-.757,2.8,2.8,0,0,1,.294-.757,1.58,1.58,0,0,1,.441-.5.908.908,0,0,1,.52-.177.525.525,0,0,1,.415.17.761.761,0,0,1,.171.47,1.986,1.986,0,0,1-.095.676C358.5,602.215,358.466,602.307,358.431,602.4Zm-.13-.821a.447.447,0,0,0-.125-.287.366.366,0,0,0-.263-.1.639.639,0,0,0-.448.225,1.508,1.508,0,0,0-.338.619l1.119-.009A1.138,1.138,0,0,0,358.3,601.583Z" transform="translate(-343.478 -599.887)" fill="#fff"/>
        </g>
      </g>
      <g id="Group_78" data-name="Group 78" transform="translate(55.299 97.166)">
        <g id="Group_77" data-name="Group 77">
          <path id="Path_80" data-name="Path 80" d="M245.4,595.8l-.657-1.4h-.131l.215,1.411-.525.008-.633-3.745h.987a.87.87,0,0,1,.506.153,1.083,1.083,0,0,1,.35.421,1.843,1.843,0,0,1,.167.6,1.565,1.565,0,0,1-.053.663.683.683,0,0,1-.325.418l.691,1.468Zm-.888-2.046.347,0a.22.22,0,0,0,.214-.124.606.606,0,0,0,.032-.346.686.686,0,0,0-.123-.335.307.307,0,0,0-.254-.122h-.357Z" transform="translate(-243.67 -591.87)" fill="#fff"/>
          <path id="Path_81" data-name="Path 81" d="M265.586,599.921l-1.237.013a.928.928,0,0,0,.144.419.3.3,0,0,0,.241.143c.135,0,.22-.1.259-.288l.577-.007a1.749,1.749,0,0,1-.129.523.961.961,0,0,1-.26.367.569.569,0,0,1-.368.138.688.688,0,0,1-.466-.178,1.394,1.394,0,0,1-.364-.524,2.733,2.733,0,0,1-.2-.8,2.434,2.434,0,0,1,.029-.806,1.048,1.048,0,0,1,.278-.531.679.679,0,0,1,.477-.187.77.77,0,0,1,.5.178,1.249,1.249,0,0,1,.359.509,2.352,2.352,0,0,1,.158.772C265.586,599.742,265.587,599.83,265.586,599.921Zm-.586-.495a.65.65,0,0,0-.125-.368.319.319,0,0,0-.257-.136.263.263,0,0,0-.227.133.692.692,0,0,0-.085.375Z" transform="translate(-261.413 -597.283)" fill="#fff"/>
          <path id="Path_82" data-name="Path 82" d="M280.917,591.982a1.179,1.179,0,0,1,.274-.526.57.57,0,0,1,.415-.185.544.544,0,0,1,.34.119.8.8,0,0,1,.242.323l-.007-1.353h.592l-.046,3.859-.525.008,0-.417a.823.823,0,0,1-.209.338.457.457,0,0,1-.316.131.521.521,0,0,1-.389-.18,1.367,1.367,0,0,1-.3-.526,2.861,2.861,0,0,1-.139-.794A2.558,2.558,0,0,1,280.917,591.982Zm1.157.26a.336.336,0,0,0-.287-.192.327.327,0,0,0-.28.193,1,1,0,0,0-.1.527,1.086,1.086,0,0,0,.129.531.327.327,0,0,0,.277.193.322.322,0,0,0,.27-.2,1.061,1.061,0,0,0,.11-.529A1.018,1.018,0,0,0,282.074,592.242Z" transform="translate(-276.497 -590.36)" fill="#fff"/>
          <path id="Path_83" data-name="Path 83" d="M300.2,592.764a1.655,1.655,0,0,1,.447-.664.939.939,0,0,1,.618-.24.879.879,0,0,1,.663.284,1.493,1.493,0,0,1,.35.8l-.364,0a1.021,1.021,0,0,0-.242-.5.579.579,0,0,0-.432-.175.678.678,0,0,0-.454.178,1.208,1.208,0,0,0-.325.5,2.739,2.739,0,0,0-.054,1.518,1.132,1.132,0,0,0,.267.5.536.536,0,0,0,.4.171.6.6,0,0,0,.419-.179,1.276,1.276,0,0,0,.3-.5l.346,0a1.988,1.988,0,0,1-.457.8.891.891,0,0,1-.633.291.716.716,0,0,1-.532-.228,1.551,1.551,0,0,1-.37-.653,2.882,2.882,0,0,1-.124-.951A2.809,2.809,0,0,1,300.2,592.764Z" transform="translate(-293.43 -591.685)" fill="#fff"/>
          <path id="Path_84" data-name="Path 84" d="M323.459,598.76l-.439,2.807-.28,0,.061-.415a1,1,0,0,1-.273.339.546.546,0,0,1-.331.125.455.455,0,0,1-.337-.131.778.778,0,0,1-.2-.406,2.013,2.013,0,0,1-.022-.663l.173-1.655h.3l-.181,1.591a1.244,1.244,0,0,0,.055.64.329.329,0,0,0,.322.219.483.483,0,0,0,.391-.236,1.563,1.563,0,0,0,.23-.674l.226-1.544Z" transform="translate(-312.502 -597.777)" fill="#fff"/>
          <path id="Path_85" data-name="Path 85" d="M338.71,591.451a.734.734,0,0,1,.444-.159.522.522,0,0,1,.409.177.9.9,0,0,1,.2.5,2.209,2.209,0,0,1-.061.749,2.92,2.92,0,0,1-.281.752,1.762,1.762,0,0,1-.4.517.716.716,0,0,1-.446.189.433.433,0,0,1-.352-.152.785.785,0,0,1-.174-.4l-.094.516-.28,0,.651-3.784h.315l-.273,1.5A1.228,1.228,0,0,1,338.71,591.451Zm.73.718a.619.619,0,0,0-.146-.354.374.374,0,0,0-.285-.12.549.549,0,0,0-.331.126,1.106,1.106,0,0,0-.292.364,1.91,1.91,0,0,0-.184.55,1.672,1.672,0,0,0-.02.553.693.693,0,0,0,.145.359.33.33,0,0,0,.263.12.519.519,0,0,0,.317-.129,1.2,1.2,0,0,0,.29-.364,2.081,2.081,0,0,0,.2-.558A1.61,1.61,0,0,0,339.44,592.169Z" transform="translate(-326.676 -590.36)" fill="#fff"/>
          <path id="Path_86" data-name="Path 86" d="M358.422,599.844l-1.4.014a1.07,1.07,0,0,0,.013.639.326.326,0,0,0,.322.225.529.529,0,0,0,.345-.143,1.186,1.186,0,0,0,.28-.373l.31,0a2.048,2.048,0,0,1-.464.651.86.86,0,0,1-.574.257.459.459,0,0,1-.382-.171.882.882,0,0,1-.174-.5,2.324,2.324,0,0,1,.073-.757,2.8,2.8,0,0,1,.294-.757,1.579,1.579,0,0,1,.441-.5.908.908,0,0,1,.52-.177.525.525,0,0,1,.415.17.762.762,0,0,1,.171.47,1.986,1.986,0,0,1-.095.676C358.488,599.655,358.457,599.747,358.422,599.844Zm-.13-.821a.447.447,0,0,0-.125-.286.366.366,0,0,0-.263-.1.639.639,0,0,0-.448.224,1.509,1.509,0,0,0-.338.619l1.119-.009A1.139,1.139,0,0,0,358.293,599.023Z" transform="translate(-343.469 -597.327)" fill="#fff"/>
        </g>
      </g>
      <g id="Group_80" data-name="Group 80" transform="translate(52.817 67.722)">
        <g id="Group_79" data-name="Group 79" transform="translate(0)">
          <path id="Path_87" data-name="Path 87" d="M227.97,349.768V346.6a4.3,4.3,0,0,1,.058-.705c.223-1.322,1.153-5.622,3.9-6.638a12.712,12.712,0,0,1,7.87,0,6.16,6.16,0,0,1,3.66,4.618,41.918,41.918,0,0,1,.295,5.9c0,1.77-1.076,3.2-2.4,3.2H230.371a2.236,2.236,0,0,1-1.869-1.193h0A3.935,3.935,0,0,1,227.97,349.768Z" transform="translate(-227.324 -338.621)" fill="#c72027"/>
          <circle id="Ellipse_15" data-name="Ellipse 15" cx="8.538" cy="8.538" r="8.538" transform="translate(0 7.001)" fill="#a81d20"/>
          <circle id="Ellipse_16" data-name="Ellipse 16" cx="8.538" cy="8.538" r="8.538" transform="translate(0 5.815)" fill="#ec1f26"/>
        </g>
        <path id="Path_88" data-name="Path 88" d="M222.483,416.186s-.6-5.915,3.158-7.268,9.173,8.02,5.213,15.74C230.854,424.658,223.335,424.057,222.483,416.186Z" transform="translate(-222.448 -400.58)" fill="#c72027"/>
      </g>
      <path id="Path_89" data-name="Path 89" d="M194.954,860.14H167.585a1.906,1.906,0,0,1-1.905-1.905V830.865a1.906,1.906,0,0,1,1.905-1.905h27.369a1.906,1.906,0,0,1,1.905,1.905v27.369A1.906,1.906,0,0,1,194.954,860.14Z" transform="translate(-119.503 -703.887)" fill="#c92027"/>
      <path id="Path_90" data-name="Path 90" d="M203.251,868.445H178.415a1.906,1.906,0,0,1-1.905-1.905V841.705a1.906,1.906,0,0,1,1.905-1.905h24.836a1.906,1.906,0,0,1,1.905,1.905v24.836A1.906,1.906,0,0,1,203.251,868.445Z" transform="translate(-129.066 -713.459)" fill="#ec1f26"/>
      <path id="Path_91" data-name="Path 91" d="M229.933,895.128H213.245a1.906,1.906,0,0,1-1.905-1.905V876.535a1.906,1.906,0,0,1,1.905-1.905h16.688a1.906,1.906,0,0,1,1.905,1.905v16.688A1.906,1.906,0,0,1,229.933,895.128Z" transform="translate(-159.822 -744.216)" fill="#c72027"/>
      <g id="Group_81" data-name="Group 81" transform="translate(53.309 139.81)" opacity="0.2">
        <path id="Path_92" data-name="Path 92" d="M228.025,958.875l-.557-1.011h-.157v1.011h-.651V956.2h1.094a1.2,1.2,0,0,1,.539.111.759.759,0,0,1,.333.3.848.848,0,0,1,.111.429.793.793,0,0,1-.151.476.812.812,0,0,1-.444.3l.618,1.06h-.735Zm-.713-1.47h.4a.37.37,0,0,0,.269-.088.332.332,0,0,0,.09-.248.32.32,0,0,0-.09-.24.371.371,0,0,0-.269-.088h-.4Z" transform="translate(-226.66 -956.055)" fill="#fff"/>
        <path id="Path_93" data-name="Path 93" d="M248.914,961.889h-1.475a.446.446,0,0,0,.127.3.389.389,0,0,0,.276.105.343.343,0,0,0,.339-.206h.694a.944.944,0,0,1-.193.378.956.956,0,0,1-.349.263,1.125,1.125,0,0,1-.469.095,1.143,1.143,0,0,1-.557-.133.95.95,0,0,1-.381-.381,1.177,1.177,0,0,1-.137-.579,1.19,1.19,0,0,1,.136-.579.937.937,0,0,1,.379-.381,1.15,1.15,0,0,1,.56-.133,1.136,1.136,0,0,1,.549.13.928.928,0,0,1,.375.37,1.122,1.122,0,0,1,.136.56A1.34,1.34,0,0,1,248.914,961.889Zm-.655-.363a.334.334,0,0,0-.115-.267.424.424,0,0,0-.285-.1.414.414,0,0,0-.276.095.42.42,0,0,0-.139.27h.815Z" transform="translate(-244.436 -959.976)" fill="#fff"/>
        <path id="Path_94" data-name="Path 94" d="M266.994,956.138a.934.934,0,0,1,.337-.381.881.881,0,0,1,.476-.133.833.833,0,0,1,.382.088.691.691,0,0,1,.273.236v-.987h.651v2.82h-.651v-.305a.675.675,0,0,1-.261.244.8.8,0,0,1-.394.091.869.869,0,0,1-.476-.136.927.927,0,0,1-.337-.385,1.4,1.4,0,0,1,0-1.152Zm1.335.194a.458.458,0,0,0-.66,0,.526.526,0,0,0-.136.384.54.54,0,0,0,.136.387.454.454,0,0,0,.66,0,.533.533,0,0,0,.136-.385A.538.538,0,0,0,268.328,956.332Z" transform="translate(-262.167 -954.96)" fill="#fff"/>
        <path id="Path_95" data-name="Path 95" d="M289.665,956.731a1.264,1.264,0,0,1,.478-.485,1.329,1.329,0,0,1,.673-.175,1.365,1.365,0,0,1,.758.209,1.2,1.2,0,0,1,.473.594h-.415a.837.837,0,0,0-.318-.37.918.918,0,0,0-.5-.13.967.967,0,0,0-.5.13.916.916,0,0,0-.347.367,1.288,1.288,0,0,0,0,1.112.911.911,0,0,0,.347.368.966.966,0,0,0,.5.13.927.927,0,0,0,.5-.128.83.83,0,0,0,.318-.367h.415a1.2,1.2,0,0,1-.473.59,1.379,1.379,0,0,1-.758.208,1.328,1.328,0,0,1-.673-.173,1.262,1.262,0,0,1-.478-.482,1.387,1.387,0,0,1-.175-.7A1.408,1.408,0,0,1,289.665,956.731Z" transform="translate(-282.141 -955.94)" fill="#fff"/>
        <path id="Path_96" data-name="Path 96" d="M317.461,961.22v2.089h-.347V963a.679.679,0,0,1-.276.249.854.854,0,0,1-.391.09.948.948,0,0,1-.439-.1.736.736,0,0,1-.306-.3,1,1,0,0,1-.112-.491v-1.224h.343V962.4a.663.663,0,0,0,.157.475.557.557,0,0,0,.427.166.571.571,0,0,0,.439-.172.708.708,0,0,0,.16-.5v-1.147h.346Z" transform="translate(-305.189 -960.488)" fill="#fff"/>
        <path id="Path_97" data-name="Path 97" d="M337.261,955.775a.928.928,0,0,1,.469-.118.972.972,0,0,1,.506.133.946.946,0,0,1,.354.375,1.171,1.171,0,0,1,.13.563,1.2,1.2,0,0,1-.13.564.95.95,0,0,1-.862.522.935.935,0,0,1-.475-.118.8.8,0,0,1-.306-.3v.385H336.6v-2.82h.347v1.12A.829.829,0,0,1,337.261,955.775Zm1.009.542a.659.659,0,0,0-.257-.267.714.714,0,0,0-.357-.091.686.686,0,0,0-.612.364.844.844,0,0,0-.1.409.853.853,0,0,0,.1.414.672.672,0,0,0,.26.27.7.7,0,0,0,.352.094.707.707,0,0,0,.357-.094.668.668,0,0,0,.257-.27.874.874,0,0,0,.095-.418A.84.84,0,0,0,338.27,956.317Z" transform="translate(-323.741 -954.96)" fill="#fff"/>
        <path id="Path_98" data-name="Path 98" d="M359.553,962.128h-1.669a.656.656,0,0,0,.678.655.64.64,0,0,0,.375-.105.56.56,0,0,0,.212-.28h.373a.9.9,0,0,1-.336.49,1.006,1.006,0,0,1-.625.188,1.06,1.06,0,0,1-.532-.133.939.939,0,0,1-.367-.379,1.174,1.174,0,0,1-.133-.57,1.2,1.2,0,0,1,.13-.568.908.908,0,0,1,.364-.375,1.082,1.082,0,0,1,.539-.131,1.052,1.052,0,0,1,.526.13.891.891,0,0,1,.352.357,1.044,1.044,0,0,1,.124.512A1.884,1.884,0,0,1,359.553,962.128Zm-.434-.622a.571.571,0,0,0-.239-.218.75.75,0,0,0-.333-.075.645.645,0,0,0-.448.167.685.685,0,0,0-.212.466h1.318A.624.624,0,0,0,359.119,961.506Z" transform="translate(-342.223 -960.223)" fill="#fff"/>
      </g>
      <g id="Group_82" data-name="Group 82" transform="translate(53.309 139.613)">
        <path id="Path_99" data-name="Path 99" d="M228.025,957.2l-.557-1.011h-.157V957.2h-.651V954.52h1.094a1.2,1.2,0,0,1,.539.111.759.759,0,0,1,.333.3.848.848,0,0,1,.111.429.793.793,0,0,1-.151.476.812.812,0,0,1-.444.3l.618,1.06Zm-.713-1.471h.4a.371.371,0,0,0,.269-.088.333.333,0,0,0,.09-.248.32.32,0,0,0-.09-.24.371.371,0,0,0-.269-.088h-.4Z" transform="translate(-226.66 -954.375)" fill="#fff"/>
        <path id="Path_100" data-name="Path 100" d="M248.914,960.209h-1.475a.445.445,0,0,0,.127.3.389.389,0,0,0,.276.105.343.343,0,0,0,.339-.206h.694a.944.944,0,0,1-.193.378.956.956,0,0,1-.349.263,1.125,1.125,0,0,1-.469.095,1.143,1.143,0,0,1-.557-.133.95.95,0,0,1-.381-.381,1.177,1.177,0,0,1-.137-.579,1.189,1.189,0,0,1,.136-.579.937.937,0,0,1,.379-.381,1.15,1.15,0,0,1,.56-.133,1.135,1.135,0,0,1,.549.13.929.929,0,0,1,.375.37,1.122,1.122,0,0,1,.136.56A1.33,1.33,0,0,1,248.914,960.209Zm-.655-.363a.334.334,0,0,0-.115-.267.424.424,0,0,0-.285-.1.414.414,0,0,0-.276.095.42.42,0,0,0-.139.27h.815Z" transform="translate(-244.436 -958.296)" fill="#fff"/>
        <path id="Path_101" data-name="Path 101" d="M266.994,954.458a.933.933,0,0,1,.337-.381.88.88,0,0,1,.476-.133.834.834,0,0,1,.382.088.691.691,0,0,1,.273.236v-.987h.651v2.82h-.651v-.305a.676.676,0,0,1-.261.244.8.8,0,0,1-.394.091.869.869,0,0,1-.476-.136.927.927,0,0,1-.337-.385,1.4,1.4,0,0,1,0-1.152Zm1.335.194a.458.458,0,0,0-.66,0,.526.526,0,0,0-.136.384.54.54,0,0,0,.136.387.454.454,0,0,0,.66,0,.533.533,0,0,0,.136-.385A.54.54,0,0,0,268.328,954.652Z" transform="translate(-262.167 -953.28)" fill="#fff"/>
        <path id="Path_102" data-name="Path 102" d="M289.665,955.051a1.264,1.264,0,0,1,.478-.485,1.329,1.329,0,0,1,.673-.175,1.365,1.365,0,0,1,.758.209,1.2,1.2,0,0,1,.473.594h-.415a.836.836,0,0,0-.318-.37.917.917,0,0,0-.5-.13.966.966,0,0,0-.5.13.916.916,0,0,0-.347.367,1.288,1.288,0,0,0,0,1.112.911.911,0,0,0,.347.368.966.966,0,0,0,.5.13.927.927,0,0,0,.5-.128.83.83,0,0,0,.318-.367h.415a1.2,1.2,0,0,1-.473.59,1.379,1.379,0,0,1-.758.208,1.328,1.328,0,0,1-.673-.173,1.262,1.262,0,0,1-.478-.482,1.387,1.387,0,0,1-.175-.7A1.408,1.408,0,0,1,289.665,955.051Z" transform="translate(-282.141 -954.26)" fill="#fff"/>
        <path id="Path_103" data-name="Path 103" d="M317.461,959.54v2.089h-.347v-.309a.678.678,0,0,1-.276.249.853.853,0,0,1-.391.09.947.947,0,0,1-.439-.1.735.735,0,0,1-.306-.3,1,1,0,0,1-.112-.491v-1.224h.343v1.178a.663.663,0,0,0,.157.475.556.556,0,0,0,.427.166.571.571,0,0,0,.439-.172.708.708,0,0,0,.16-.5v-1.147h.346Z" transform="translate(-305.189 -958.808)" fill="#fff"/>
        <path id="Path_104" data-name="Path 104" d="M337.261,954.1a.928.928,0,0,1,.469-.118.972.972,0,0,1,.506.133.947.947,0,0,1,.354.375,1.171,1.171,0,0,1,.13.563,1.2,1.2,0,0,1-.13.564.951.951,0,0,1-.862.522.934.934,0,0,1-.475-.118.8.8,0,0,1-.306-.3v.385H336.6v-2.82h.347V954.4A.829.829,0,0,1,337.261,954.1Zm1.009.542a.658.658,0,0,0-.257-.267.713.713,0,0,0-.357-.091.686.686,0,0,0-.612.364.844.844,0,0,0-.1.409.853.853,0,0,0,.1.414.673.673,0,0,0,.26.27.7.7,0,0,0,.352.094.707.707,0,0,0,.357-.094.668.668,0,0,0,.257-.27.873.873,0,0,0,.095-.418A.84.84,0,0,0,338.27,954.637Z" transform="translate(-323.741 -953.28)" fill="#fff"/>
        <path id="Path_105" data-name="Path 105" d="M359.553,960.448h-1.669a.656.656,0,0,0,.678.655.64.64,0,0,0,.375-.105.56.56,0,0,0,.212-.279h.373a.9.9,0,0,1-.336.49,1.006,1.006,0,0,1-.625.188,1.06,1.06,0,0,1-.532-.133.939.939,0,0,1-.367-.379,1.174,1.174,0,0,1-.133-.57,1.2,1.2,0,0,1,.13-.568.909.909,0,0,1,.364-.375,1.083,1.083,0,0,1,.539-.131,1.052,1.052,0,0,1,.526.13.891.891,0,0,1,.352.357,1.045,1.045,0,0,1,.124.512A1.87,1.87,0,0,1,359.553,960.448Zm-.434-.622a.571.571,0,0,0-.239-.218.749.749,0,0,0-.333-.075.644.644,0,0,0-.448.167.685.685,0,0,0-.212.465h1.318A.624.624,0,0,0,359.119,959.826Z" transform="translate(-342.223 -958.543)" fill="#fff"/>
      </g>
    </g>
  </g>
</svg>
