<svg xmlns="http://www.w3.org/2000/svg" width="330.394" height="1055.311" viewBox="0 0 330.394 1055.311">
  <g id="Group_103" data-name="Group 103" transform="translate(-518.106 -4218)">
    <g id="Group_65" data-name="Group 65" transform="translate(0 -51)">
      <rect id="Rectangle_25" data-name="Rectangle 25" width="236" height="1055" transform="translate(565 4269)" fill="#202020"/>
      <path id="Line_10" data-name="Line 10" d="M1.5,1054.811h-3V0h3Z" transform="translate(603.5 4269.5)" fill="#f3f3f3"/>
      <path id="Line_11" data-name="Line 11" d="M1.5,1054.811h-3V0h3Z" transform="translate(765.5 4269.5)" fill="#f3f3f3"/>
      <path id="Line_12" data-name="Line 12" d="M1.5,1047.811h-3v-15.639h3Zm0-31.278h-3v-15.639h3Zm0-31.278h-3V969.616h3Zm0-31.278h-3V938.338h3Zm0-31.278h-3V907.06h3Zm0-31.278h-3V875.782h3Zm0-31.278h-3V844.5h3Zm0-31.278h-3V813.226h3Zm0-31.278h-3V781.948h3Zm0-31.278h-3V750.67h3Zm0-31.278h-3V719.392h3Zm0-31.278h-3V688.114h3Zm0-31.278h-3V656.836h3Zm0-31.278h-3V625.559h3Zm0-31.278h-3V594.281h3Zm0-31.278h-3V563h3Zm0-31.278h-3V531.725h3Zm0-31.278h-3V500.447h3Zm0-31.278h-3V469.169h3Zm0-31.278h-3V437.891h3Zm0-31.278h-3V406.613h3Zm0-31.278h-3V375.335h3Zm0-31.278h-3V344.057h3Zm0-31.278h-3V312.779h3Zm0-31.278h-3V281.5h3Zm0-31.278h-3V250.223h3Zm0-31.278h-3V218.945h3Zm0-31.278h-3V187.668h3Zm0-31.278h-3V156.39h3Zm0-31.278h-3V125.112h3Zm0-31.278h-3V93.834h3Zm0-31.278h-3V62.556h3Zm0-31.278h-3V31.278h3Zm0-31.278h-3V0h3Z" transform="translate(683 4269.5)" fill="#f3f3f3"/>
    </g>
    <g id="Group_10" data-name="Group 10" transform="translate(305 2553)">
      <g id="Ellipse_2" data-name="Ellipse 2" transform="translate(363 1905)" fill="none" stroke="#fff" stroke-width="1">
        <circle cx="15" cy="15" r="15" stroke="none"/>
        <circle cx="15" cy="15" r="14.5" fill="none"/>
      </g>
      <g id="Ellipse_3" data-name="Ellipse 3" transform="translate(368 1910)" fill="none" stroke="#fff" stroke-width="1">
        <circle cx="10" cy="10" r="10" stroke="none"/>
        <circle cx="10" cy="10" r="9.5" fill="none"/>
      </g>
      <circle id="Ellipse_4" data-name="Ellipse 4" cx="6" cy="6" r="6" transform="translate(372 1914)" fill="#ff2424"/>
      <circle id="Ellipse_5" data-name="Ellipse 5" cx="2" cy="2" r="2" transform="translate(376 1918)" fill="#202020"/>
    </g>
    <text id="_01" data-name="01" transform="translate(625 4486)" fill="#ff2424" font-size="32" font-family="SegoeUI-Bold, Segoe UI" font-weight="700"><tspan x="0" y="0">01</tspan></text>
    <line id="Line_10-2" data-name="Line 10" x2="150" transform="translate(698.5 4473.5)" fill="none" stroke="#d1d1d1" stroke-width="1" stroke-dasharray="8 8"/>
    <g id="Group_12" data-name="Group 12" transform="translate(305 2841)">
      <g id="Ellipse_2-2" data-name="Ellipse 2" transform="translate(363 1905)" fill="none" stroke="#fff" stroke-width="1">
        <circle cx="15" cy="15" r="15" stroke="none"/>
        <circle cx="15" cy="15" r="14.5" fill="none"/>
      </g>
      <g id="Ellipse_3-2" data-name="Ellipse 3" transform="translate(368 1910)" fill="none" stroke="#fff" stroke-width="1">
        <circle cx="10" cy="10" r="10" stroke="none"/>
        <circle cx="10" cy="10" r="9.5" fill="none"/>
      </g>
      <circle id="Ellipse_4-2" data-name="Ellipse 4" cx="6" cy="6" r="6" transform="translate(372 1914)" fill="#ff2424"/>
      <circle id="Ellipse_5-2" data-name="Ellipse 5" cx="2" cy="2" r="2" transform="translate(376 1918)" fill="#202020"/>
    </g>
    <text id="_03" data-name="03" transform="translate(625 4774)" fill="#ff2424" font-size="32" font-family="SegoeUI-Bold, Segoe UI" font-weight="700"><tspan x="0" y="0">03</tspan></text>
    <line id="Line_12-2" data-name="Line 12" x2="150" transform="translate(698.5 4761.5)" fill="none" stroke="#d1d1d1" stroke-width="1" stroke-dasharray="8 8"/>
    <g id="Group_14" data-name="Group 14" transform="translate(305 3151)">
      <g id="Ellipse_2-3" data-name="Ellipse 2" transform="translate(363 1905)" fill="none" stroke="#fff" stroke-width="1">
        <circle cx="15" cy="15" r="15" stroke="none"/>
        <circle cx="15" cy="15" r="14.5" fill="none"/>
      </g>
      <g id="Ellipse_3-3" data-name="Ellipse 3" transform="translate(368 1910)" fill="none" stroke="#fff" stroke-width="1">
        <circle cx="10" cy="10" r="10" stroke="none"/>
        <circle cx="10" cy="10" r="9.5" fill="none"/>
      </g>
      <circle id="Ellipse_4-3" data-name="Ellipse 4" cx="6" cy="6" r="6" transform="translate(372 1914)" fill="#ff2424"/>
      <circle id="Ellipse_5-3" data-name="Ellipse 5" cx="2" cy="2" r="2" transform="translate(376 1918)" fill="#202020"/>
    </g>
    <text id="_05" data-name="05" transform="translate(625 5084)" fill="#ff2424" font-size="32" font-family="SegoeUI-Bold, Segoe UI" font-weight="700"><tspan x="0" y="0">05</tspan></text>
    <line id="Line_14" data-name="Line 14" x2="150" transform="translate(698.5 5071.5)" fill="none" stroke="#d1d1d1" stroke-width="1" stroke-dasharray="8 8"/>
    <g id="Group_11" data-name="Group 11" transform="translate(305 2699)">
      <g id="Ellipse_2-4" data-name="Ellipse 2" transform="translate(363 1905)" fill="none" stroke="#fff" stroke-width="1">
        <circle cx="15" cy="15" r="15" stroke="none"/>
        <circle cx="15" cy="15" r="14.5" fill="none"/>
      </g>
      <g id="Ellipse_3-4" data-name="Ellipse 3" transform="translate(368 1910)" fill="none" stroke="#fff" stroke-width="1">
        <circle cx="10" cy="10" r="10" stroke="none"/>
        <circle cx="10" cy="10" r="9.5" fill="none"/>
      </g>
      <circle id="Ellipse_4-4" data-name="Ellipse 4" cx="6" cy="6" r="6" transform="translate(372 1914)" fill="#ff2424"/>
      <circle id="Ellipse_5-4" data-name="Ellipse 5" cx="2" cy="2" r="2" transform="translate(376 1918)" fill="#202020"/>
    </g>
    <text id="_02" data-name="02" transform="translate(708 4632)" fill="#ff2424" font-size="32" font-family="SegoeUI-Bold, Segoe UI" font-weight="700"><tspan x="0" y="0">02</tspan></text>
    <line id="Line_11-2" data-name="Line 11" x2="164.985" transform="translate(518.106 4619.5)" fill="none" stroke="#d1d1d1" stroke-width="1" stroke-dasharray="8 8"/>
    <g id="Group_13" data-name="Group 13" transform="translate(305 3009)">
      <g id="Ellipse_2-5" data-name="Ellipse 2" transform="translate(363 1905)" fill="none" stroke="#fff" stroke-width="1">
        <circle cx="15" cy="15" r="15" stroke="none"/>
        <circle cx="15" cy="15" r="14.5" fill="none"/>
      </g>
      <g id="Ellipse_3-5" data-name="Ellipse 3" transform="translate(368 1910)" fill="none" stroke="#fff" stroke-width="1">
        <circle cx="10" cy="10" r="10" stroke="none"/>
        <circle cx="10" cy="10" r="9.5" fill="none"/>
      </g>
      <circle id="Ellipse_4-5" data-name="Ellipse 4" cx="6" cy="6" r="6" transform="translate(372 1914)" fill="#ff2424"/>
      <circle id="Ellipse_5-5" data-name="Ellipse 5" cx="2" cy="2" r="2" transform="translate(376 1918)" fill="#202020"/>
    </g>
    <text id="_04" data-name="04" transform="translate(708 4942)" fill="#ff2424" font-size="32" font-family="SegoeUI-Bold, Segoe UI" font-weight="700"><tspan x="0" y="0">04</tspan></text>
    <line id="Line_13" data-name="Line 13" x2="165.394" transform="translate(518.106 4929.5)" fill="none" stroke="#d1d1d1" stroke-width="1" stroke-dasharray="8 8"/>
  </g>
</svg>
