<svg xmlns="http://www.w3.org/2000/svg" width="17.383" height="14.151" viewBox="0 0 17.383 14.151">
  <path id="twitter" d="M19.383,5.545a7.379,7.379,0,0,1-2.051.556A3.59,3.59,0,0,0,18.9,4.128,7.136,7.136,0,0,1,16.636,5a3.563,3.563,0,0,0-6.084,3.251A10.117,10.117,0,0,1,3.208,4.519a3.616,3.616,0,0,0-.478,1.8A3.555,3.555,0,0,0,4.312,9.282,3.52,3.52,0,0,1,2.7,8.839v.043a3.563,3.563,0,0,0,2.868,3.477,3.416,3.416,0,0,1-.956.148,4.259,4.259,0,0,1-.669-.061,3.572,3.572,0,0,0,3.329,2.468,7.144,7.144,0,0,1-4.4,1.53A6.891,6.891,0,0,1,2,16.391,10.056,10.056,0,0,0,7.467,18,10.073,10.073,0,0,0,17.644,7.848V7.387A7.327,7.327,0,0,0,19.383,5.545Z" transform="translate(-2 -3.849)" fill="#fff"/>
</svg>
