<svg xmlns="http://www.w3.org/2000/svg" xmlns:xlink="http://www.w3.org/1999/xlink" width="60" height="60" viewBox="0 0 60 60">
  <defs>
    <linearGradient id="linear-gradient" x1="0.5" x2="0.5" y2="1" gradientUnits="objectBoundingBox">
      <stop offset="0" stop-color="#af1519"/>
      <stop offset="1" stop-color="#e32d2a"/>
    </linearGradient>
  </defs>
  <g id="Group_30" data-name="Group 30" transform="translate(-607 -2327)">
    <rect id="Rectangle_6" data-name="Rectangle 6" width="60" height="60" rx="10" transform="translate(607 2327)" fill="#f5f5f5"/>
    <path id="wifi" d="M19.263,23a5,5,0,1,0,5,5A5,5,0,0,0,19.263,23Zm0,6.664A1.666,1.666,0,1,1,20.929,28,1.666,1.666,0,0,1,19.263,29.661Zm0-13.328a11.762,11.762,0,0,0-8.247,3.415A1.661,1.661,0,1,0,13.365,22.1a8.33,8.33,0,0,1,11.8,0,1.691,1.691,0,1,0,2.432-2.349A11.762,11.762,0,0,0,19.263,16.333Zm0-6.664A18.46,18.46,0,0,0,6.3,15.033,1.673,1.673,0,0,0,8.667,17.4a14.994,14.994,0,0,1,21.192,0,1.673,1.673,0,1,0,2.366-2.366A18.46,18.46,0,0,0,19.263,9.669Zm17.677.65a24.991,24.991,0,0,0-35.353,0,1.673,1.673,0,0,0,2.366,2.366,21.658,21.658,0,0,1,30.622,0,1.673,1.673,0,1,0,2.366-2.366Z" transform="translate(617.736 2339.007)" fill="url(#linear-gradient)"/>
  </g>
</svg>
